<?xml version="1.0" encoding="utf-8"?>
<svg id="master-artboard" viewBox="0 0 300.5878601074219 326.3569030761719" version="1.1" xmlns="http://www.w3.org/2000/svg" x="0px" y="0px" style="enable-background:new 0 0 1096 780;" width="300.5878601074219px" height="326.3569030761719px"><rect id="ee-background" x="0" y="0" width="300.5878601074219" height="326.3569030761719" style="fill: white; fill-opacity: 0; pointer-events: none;"/>

<path d="M 0 0 H 1096 V 780 H 0 V 0 Z" class="st0" style="fill: rgb(255, 255, 255); fill-opacity: 0;" transform="matrix(1, 0, 0, 1, -795.4121322631836, 0)"/>






<path class="st1" d="M1032.3,286.1H858c-16.5,0-30-13.5-30-30V80c0-16.5,13.5-30,30-30h174.2c16.5,0,30,13.5,30,30v176.1&#10;&#9;C1062.3,272.6,1048.8,286.1,1032.3,286.1z" style="fill: rgb(0, 150, 75);" transform="matrix(1, 0, 0, 1, -795.4121322631836, 0)"/>















<path class="st0" d="M1021.6,137.5c3.9-3.9,3.9-10.2,0-14.1l-17-17c-3.9-3.9-10.2-3.9-14.1,0l-61,61c-3.9,3.9-10.2,3.9-14.1,0&#10;&#9;l-15.5-15.5c-3.9-3.9-10.2-3.9-14.1,0l-17,17c-3.9,3.9-3.9,10.2,0,14.1l46.6,46.6c3.9,3.9,10.3,3.9,14.2,0L1021.6,137.5z" style="fill: rgb(255, 255, 255);" transform="matrix(1, 0, 0, 1, -795.4121322631836, 0)"/>




</svg>
