<?xml version="1.0" encoding="utf-8"?>
<svg id="master-artboard" viewBox="0 0 883.4122924804688 640.9508666992188" version="1.1" xmlns="http://www.w3.org/2000/svg" x="0px" y="0px" style="enable-background:new 0 0 1400 980;" width="883.4122924804688px" height="640.9508666992188px"><defs><linearGradient id="gradient-0" gradientUnits="userSpaceOnUse" x1="703.5" y1="-1" x2="703.5" y2="988">
                <stop offset="0" style="stop-color: #3a4e6f"/>
                <stop offset="1" style="stop-color: #171f2c"/>
              </linearGradient></defs><rect id="ee-background" x="0" y="0" width="883.4122924804688" height="640.9508666992188" style="fill: white; fill-opacity: 0; pointer-events: none;"/>

<path d="M -1 -1 H 1408 V 988 H -1 V -1 Z" class="st0" style="fill: rgb(58, 78, 111); fill-opacity: 0;" transform="matrix(0.6729044914245605, 0, 0, 0.6729044914245605, -36.329917907714844, -19.57393503189087)"/>




<g transform="matrix(0.5919525623321533, 0, 0, 0.5919525623321533, -25.16042782042581, 180.32069560366398)">
	<g>
		<path class="st14" d="M438,95.2c0,22.4-17,40.5-38,40.5c-21,0-38-18.1-38-40.5c0-22.4,17-37.5,38-37.5C421,57.7,438,72.8,438,95.2&#10;&#9;&#9;&#9;z" style="fill: rgb(51, 30, 14);"/>
		<path class="st14" d="M443,60.9c0,9.7-7.4,17.5-16.4,17.5c-9.1,0-16.4-7.8-16.4-17.5c0-9.7,7.4-16.2,16.4-16.2&#10;&#9;&#9;&#9;C435.6,44.7,443,51.2,443,60.9z" style="fill: rgb(51, 30, 14);"/>
		<path class="st13" d="M437.3,360.2c-0.1-1.2,0.2-2.9,0-4.1l0.2-47.1H358v55.3c0,4.4,0,8.9,0,13.3c0,0.5,0,1,0,1.4&#10;&#9;&#9;&#9;c0,43.5,0,86.9,0,130.4c0,4.9,0,9.8,0,14.7c0,8,7.3,14.7,15.3,14.7c7.9,0.1,11-6.6,11-14.5c0-48.4,0.7-96.8,0.7-145.1&#10;&#9;&#9;&#9;c0-4.9,0-9.8,0-14.7c0-1.1,0.3-2.1,0.3-3.1c0-1.3,0.3-1.8,0.4-2.7c0.1-0.4,0.2-1.7,0.3-2.1c0.2-1,0.6-2,0.8-3.1&#10;&#9;&#9;&#9;c0.2-0.6,0.4-1.2,0.6-1.9c0.2-0.4,0.3-0.8,0.5-1.1c0.4-0.9,2.6-4,2.6-4.2c0.7-0.7,1.4-1.4,2.1-2.1c0.8-0.5,1.6-1,2.4-1.4&#10;&#9;&#9;&#9;c0,0,0.1,0,0.1-0.1c0.4-0.1,0.7-0.2,1.1-0.3c0.5-0.1,0.9-0.2,1.4-0.3c0.1,0,0.3,0,0.5,0c0.6,0,1.2,0,1.8,0c1,0.3,2.5,0.9,3.2,1.1&#10;&#9;&#9;&#9;c0.3,0.2,0.7,0.4,1,0.6c-0.7-0.4,1.9,1.8,3,2.8c0.5,0.7,0.9,1.5,1.4,2.2c0.4,0.7,0.7,1.3,1,2c0.2,0.5,0.3,1,0.5,1.4&#10;&#9;&#9;&#9;c0.7,2,1,3.8,1.3,5.9c0,0,0,0.1,0,0.1c0,0.2,0,0.8,0.1,1c0.1,0.6-0.1,1.3,0,1.9c0,1-0.2,2-0.2,3.1c0,48.4,0.9,96.7,0.9,145.1&#10;&#9;&#9;&#9;c0,4.9,0,9.8,0,14.7c0,8,4.9,14.7,12.9,14.7c7.9,0.1,12.1-6.6,12.1-14.5c0-48.4,0-96.8,0-145.1c0-4.9,0-9.8,0-14.7&#10;&#9;&#9;&#9;C437,363.1,437.4,361.7,437.3,360.2z M387.2,352.2C387.1,352.6,387.1,352.5,387.2,352.2L387.2,352.2z M395.8,342.5&#10;&#9;&#9;&#9;C396.6,342.1,397.2,341.9,395.8,342.5L395.8,342.5z" style="fill: rgb(186, 132, 96);"/>
		<path class="st13" d="M424.9,107.4c0.1,14.4-6.7,29.7-23.7,33.9c-21.2,5.2-32,10.2-33.1-24c-0.5-15-12.5-49.8,24.1-47&#10;&#9;&#9;&#9;C409.6,71.5,424.7,84.4,424.9,107.4z" style="fill: rgb(186, 132, 96);"/>
		<g>
			<path class="st3" d="M451.3,212.9c0.1,0.3,0.3,0.6,0.4,0.9C451.4,213.1,451.3,212.9,451.3,212.9z" style="fill: none;"/>
			<path class="st3" d="M339.8,247.3C340,245.5,339.4,249.7,339.8,247.3L339.8,247.3z" style="fill: none;"/>
			<path class="st3" d="M349.4,209.7C350.3,207.5,348.9,210.8,349.4,209.7L349.4,209.7z" style="fill: none;"/>
			<path class="st3" d="M460.5,248.1C460.5,248.2,460.5,248.2,460.5,248.1C460.8,250.7,460.3,246.8,460.5,248.1z" style="fill: none;"/>
			<path class="st3" d="M461.3,292.7c0,0.3-0.1,0.5-0.1,0.8C461,295.2,461.7,290,461.3,292.7z" style="fill: none;"/>
			<path class="st3" d="M359.3,192.3c0.2-0.3,0.4-0.6,0.6-0.8C359.4,192.2,359.3,192.4,359.3,192.3z" style="fill: none;"/>
			<path class="st3" d="M369.2,182.3C369.5,182,368.6,182.7,369.2,182.3L369.2,182.3z" style="fill: none;"/>
			<path class="st3" d="M379.1,176.4c0.2-0.1,0.5-0.2,0.7-0.3C380.1,175.9,380.2,175.9,379.1,176.4z" style="fill: none;"/>
			<path class="st3" d="M440.9,194.8C442,196.1,439.8,193.3,440.9,194.8L440.9,194.8z" style="fill: none;"/>
			<path class="st3" d="M393,172.6C395.2,172.2,391.9,172.6,393,172.6L393,172.6z" style="fill: none;"/>
			<path class="st3" d="M434.1,236.8l0-0.1C434,236.3,434,236.3,434.1,236.8z" style="fill: none;"/>
			<path class="st3" d="M362.9,236.6L362.9,236.6C363,236.4,363,236.3,362.9,236.6z" style="fill: none;"/>
			<path class="st3" d="M430.4,184.2C432.2,185.5,429.6,183.5,430.4,184.2L430.4,184.2z" style="fill: none;"/>
		</g>
		<path class="st14" d="M364,92h20l2.5-9.4L390,92l33,7l-6.3-34l-41,1.6C375.7,66.6,363,84,364,92z" style="fill: rgb(51, 30, 14);"/>
		<path class="st14" d="M412,88.7c0,0,5.2,20.5,0.5,47.9c0,0,10.8-3.5,17.7-21.2c2.4-6.2-2.6-26.7-2.6-26.7" style="fill: rgb(51, 30, 14);"/>
		<path class="st13" d="M423.3,113.7c0,4.2-3,7.7-6.7,7.7c-3.7,0-6.7-3.4-6.7-7.7c0-4.2,4-7.7,7.7-7.7&#10;&#9;&#9;&#9;C421.3,106,423.3,109.4,423.3,113.7z" style="fill: rgb(186, 132, 96);"/>
	</g>
	<g>
		<path class="st3" d="M451.3,212.9c0.1,0.3,0.3,0.6,0.4,0.9C451.4,213.1,451.3,212.9,451.3,212.9z" style="fill: none;"/>
		<path class="st3" d="M349.4,209.7C350.3,207.5,348.9,210.8,349.4,209.7L349.4,209.7z" style="fill: none;"/>
		<path class="st3" d="M339.8,247.3C340,245.5,339.4,249.7,339.8,247.3L339.8,247.3z" style="fill: none;"/>
		<path class="st3" d="M460.5,248.1C460.5,248.2,460.5,248.2,460.5,248.1C460.8,250.7,460.3,246.8,460.5,248.1z" style="fill: none;"/>
		<path class="st3" d="M461.3,292.7c0,0.3-0.1,0.5-0.1,0.8C461,295.2,461.7,290,461.3,292.7z" style="fill: none;"/>
		<g>
			<path class="st1" d="M437.7,263h-78.5c-6.2,22.2-14.7,64-10.5,115h98.4C452.8,329.9,444,286.2,437.7,263z" style="fill: rgb(14, 36, 53);"/>
			<path class="st1" d="M432.1,245.6l10.3-48.8c0,0,0.1,0.1,0.1,0.1c0.1,0.1,0.1,0.2,0.2,0.2c2.1,3.1,4,6.3,5.7,9.6&#10;&#9;&#9;&#9;&#9;c0.1,0.2,0.2,0.5,0.3,0.7l17.3-10.9c-5.1-9.7-11.7-18.6-20-25.8c-3.9-3.4-8.2-6.5-12.9-9.1c-29.2-16.2-59.5-13.3-83.4,10.6&#10;&#9;&#9;&#9;&#9;c-0.2,0.2-0.5,0.4-0.7,0.7c-6.9,7-12.2,15.2-16.4,24l17.5,11c0.2-0.4,0.3-0.7,0.5-1.1c0.7-1.5,1.5-3,2.2-4.4&#10;&#9;&#9;&#9;&#9;c0.5-0.9,1-1.9,1.6-2.8l10.5,46c0,0.1-0.1,0.2-0.2,0.3h67.5C432.2,245.9,432.2,245.7,432.1,245.6z" style="fill: rgb(14, 36, 53);"/>
			<path class="st2" d="M432.3,246h-67.5c-0.7,1.6-3,7.5-5.6,17h78.5C435.1,253.8,433,247.8,432.3,246z" style="fill: rgb(20, 62, 91);"/>
			<path class="st2" d="M444.8,393c0.9-5,1.6-10,2.2-15h-98.4c0.4,4.9,0.9,9.9,1.6,15H444.8z" style="fill: rgb(20, 62, 91);"/>
		</g>
		<path class="st13" d="M412.1,130.8l2,28c-0.1,6.5-6.8,13.2-15.1,13.2h-2c-8.3,0-15-6.7-15-15l2-28" style="fill: rgb(186, 132, 96);"/>
		<path class="st13" d="M318.7,253c-1.2,11.4-1.7,23-1.2,34.6c0.1,2.6,0.3,5.2,0.5,7.8c0.5,5.6,4.3,10.2,10.2,10.2&#10;&#9;&#9;&#9;c5.2,0,10.7-4.7,10.2-10.2c-0.2-2.6-0.4-5.2-0.5-7.8c-0.6-13.3,0.2-26.8,1.8-39.9c0-0.2,0-0.3,0-0.4c-0.3,2.5,0.2-1.7,0,0&#10;&#9;&#9;&#9;c0,0,0,0,0,0c0.1-0.8,0.2-1.6,0.3-2.4c0.2-1.6,0.5-3.2,0.8-4.8c0.6-3.5,1.4-7,2.2-10.5c1.6-6.8,3.7-13.4,6.3-19.9c0,0,0,0,0,0&#10;&#9;&#9;&#9;c-0.5,1.1,0.9-2.2,0,0c0.1-0.1,0.1-0.3,0.3-0.6c0.2-0.4,0.4-0.8,0.5-1.2l-17.5-11C324.4,214.3,320.6,234.3,318.7,253z" style="fill: rgb(186, 132, 96);"/>
		<path class="st13" d="M479.3,237.1c-2.4-13.9-6.6-27.9-13.3-40.5l-17.3,10.9c0.7,1.3,1.3,2.6,1.9,4c0.2,0.5,0.4,1,0.7,1.5&#10;&#9;&#9;&#9;c0,0,0.1,0.2,0.4,0.9c-0.1-0.3-0.3-0.6-0.4-0.9c0,0.1,0.6,1.4,0.7,1.6c1.4,3.5,2.6,7,3.6,10.6c2,6.8,3.4,13.7,4.5,20.6&#10;&#9;&#9;&#9;c0.1,0.8,0.2,1.6,0.4,2.4c-0.2-1.3,0.4,2.5,0,0.1c0,0,0,0,0-0.1c0,0.1,0,0.3,0.1,0.5c0.2,1.6,0.4,3.1,0.5,4.7&#10;&#9;&#9;&#9;c0.3,3.3,0.6,6.5,0.7,9.8c0.4,6.9,0.4,13.7,0.1,20.6c-0.1,1.3-0.1,2.5-0.2,3.8c-0.1,1.1-0.2,2.3-0.3,3.4c0,0.5-0.1,1.1-0.2,1.6&#10;&#9;&#9;&#9;c0.5-2.6-0.3,2.5-0.1,0.8c0-0.3,0.1-0.5,0.1-0.8c0,0,0,0,0,0c-1,5.5,1.4,11,7.1,12.6c5,1.4,11.6-1.7,12.6-7.1&#10;&#9;&#9;&#9;c0.6-3.5,1.1-7,1.4-10.5C483.9,270.8,482.1,253.3,479.3,237.1z" style="fill: rgb(186, 132, 96);"/>
		<path class="st7" d="M373,125h26.8C399.8,125,386.3,147.5,373,125z" style="fill: rgb(35, 20, 11);"/>
	</g>
	<path class="st13" d="M397.8,199.5L397.8,199.5c0,0-21.4-34-14.8-43.5c4.6-6.6,25.4-6.6,30,0C419.6,165.5,397.8,199.5,397.8,199.5z&#10;&#9;&#9;" style="fill: rgb(186, 132, 96);"/>
	<path class="st2" d="M397.8,199.5l5.9,14.3l21.2-38.5L420,172l17.7-11.5c0,0-9.3-9.4-23.9-7.7C413.8,152.8,415.7,172.6,397.8,199.5&#10;&#9;&#9;z" style="fill: rgb(20, 62, 91);"/>
	<path class="st2" d="M398.7,199.5l-5.9,14.3l-21.2-38.5l4.9-3.3l-17.7-11.5c0,0,9.3-9.4,23.9-7.7&#10;&#9;&#9;C382.7,152.8,380.8,172.6,398.7,199.5z" style="fill: rgb(20, 62, 91);"/>
</g>



<g transform="matrix(0.5919525623321533, 0, 0, 0.5919525623321533, 16.69709805173153, -59.59440864276441)">
	<g>
		<path class="st8" d="M94,767.1c0,5,0,10,0,15.1c0,49.6,0,99.3,0,148.9c0,8.2,7.5,14.9,15.6,14.9c8.2-0.1,14.4-6.9,14.4-15.1&#10;&#9;&#9;&#9;c0-5,0-10,0-15.1c0-49.6,1.2-99.3,1.2-148.9c0-1.1,0-2.1,0-3.2c0-0.6,0-1.3,0-1.9c0-0.3,0.1-0.9,0.1-1c0,0,0-0.1,0-0.1&#10;&#9;&#9;&#9;c0.4-2.2,0.7-4,1.4-6.1c0.2-0.5,0.3-1,0.5-1.5c0.3-0.7,0.7-1.4,1.1-2.1c0.5-0.8,0.9-1.5,1.4-2.3c1.1-1.1,3.8-3.3,3.1-2.9&#10;&#9;&#9;&#9;c0.3-0.2,0.7-0.4,1-0.6c0.6-0.2,2.2-0.8,3.2-1.1c0.6,0,1.2-0.1,1.9,0c0.2,0,0.3,0,0.5,0c0.5,0.1,1,0.2,1.4,0.3&#10;&#9;&#9;&#9;c0.4,0.1,0.7,0.2,1.1,0.3c0,0,0.1,0,0.1,0.1c0.8,0.5,1.7,0.9,2.5,1.5c0.7,0.7,1.5,1.4,2.2,2.1c0,0.2,2.2,3.4,2.7,4.3&#10;&#9;&#9;&#9;c0.1,0.2,0.3,0.7,0.5,1.1c0.2,0.6,0.4,1.3,0.6,1.9c0.3,1,0.6,2.1,0.8,3.1c0.1,0.4,0.1,1.7,0.2,2.1c0.1,0.9-0.1,1.4,0,2.8&#10;&#9;&#9;&#9;c0,1.1-0.3,2.1-0.3,3.2c0,5,0,10,0,15.1c0,49.6,1.2,99.3,1.2,148.9c0,8.2,6.4,14.9,14.5,14.9c8.2-0.1,15.3-6.9,15.3-15.1&#10;&#9;&#9;&#9;c0-5,0-10,0-15.1c0-44.6,0-89.2,0-133.8c0-0.4,0-0.9,0-1.4c0-4.6,0-9.1,0-13.7V710H94.4l0.1,48.5c-0.1,1.3-0.2,3-0.3,4.3&#10;&#9;&#9;&#9;C94,764.3,94,765.7,94,767.1z M150,754.5C150.1,754.8,150.1,754.9,150,754.5L150,754.5z M141.2,744.5&#10;&#9;&#9;&#9;C139.7,743.9,140.4,744.2,141.2,744.5L141.2,744.5z" style="fill: rgb(38, 53, 63);"/>
		<path class="st12" d="M184,725V601.7c0-19.7-15.2-35.7-34.9-35.7h-23.4C106,566,90,582,90,601.7V725" style="fill: rgb(9, 22, 30);"/>
		<g>
			<path class="st3" d="M68,676c0.2-3.4,0.4-6.7,0.8-10c0.2-1.6,0.3-3.2,0.5-4.9c0-0.2,0.1-0.4,0.1-0.6c0.1-0.8,0.2-1.6,0.4-2.4&#10;&#9;&#9;&#9;&#9;c1.1-7.1,2.6-14.2,4.6-21.2c1.1-3.7,2.3-7.3,3.7-10.9c0.1-0.2,0.7-1.6,0.7-1.7c0.2-0.5,0.4-1,0.7-1.5c0.7-1.6,1.5-3.2,2.3-4.8&#10;&#9;&#9;&#9;&#9;c1.8-3.4,3.7-6.7,5.9-9.8c0.5-0.7,1-1.4,1.5-2.1c0.1-0.1,0.2-0.2,0.2-0.3c0.1-0.1,0.2-0.2,0.3-0.3c1.1-1.4,2.3-2.7,3.5-4&#10;&#9;&#9;&#9;&#9;c1.4-1.5,2.9-3,4.4-4.3c0.7-0.6,1.3-1.2,2-1.7c0.3-0.2,0.5-0.4,0.6-0.5c0,0,0.1,0,0.1-0.1c3-2.2,6.1-4.1,9.3-5.8&#10;&#9;&#9;&#9;&#9;c3.5-1.7,5.1-2.5,10.1-3.9c2-0.5,4-1.1,6-1.4c2.3-0.4,3.9-0.7,4.7-0.7c4.7-0.5,9.5-0.7,14.2-0.3c1,0.1,2,0.1,3,0.2&#10;&#9;&#9;&#9;&#9;c0.4,0,0.7,0.1,0.9,0.1c0.1,0,0.1,0,0.2,0c1.9,0.3,3.7,0.6,5.5,1.1c2,0.5,4.1,1.1,6,1.8c0.6,0.2,1.2,0.4,1.8,0.7&#10;&#9;&#9;&#9;&#9;c0.4,0.2,1.2,0.5,1.4,0.6c3,1.5,6,3.2,8.7,5.1c0.4,0.3,0.7,0.5,0.8,0.6c0.1,0.1,0.2,0.1,0.3,0.3c0.6,0.5,1.3,1.1,1.9,1.6&#10;&#9;&#9;&#9;&#9;c1.2,1.1,2.4,2.2,3.6,3.4c1.1,1.2,2.2,2.4,3.3,3.7c0.2,0.2,0.9,1.2,1,1.3c0.3,0.4,0.6,0.8,0.8,1.2c2.1,3,4,6,5.7,9.2&#10;&#9;&#9;&#9;&#9;c0.8,1.5,1.6,3,2.3,4.5c0.4,0.8,0.7,1.5,1.1,2.3c0.1,0.3,0.2,0.5,0.3,0.6c0,0,0,0,0,0c2.7,6.6,4.8,13.4,6.5,20.4&#10;&#9;&#9;&#9;&#9;c0.8,3.6,1.6,7.2,2.2,10.8c0.3,1.6,0.6,3.3,0.8,4.9c0.1,0.8,0.2,1.6,0.4,2.4c0,0,0,0,0,0c0,0.1,0,0.2,0,0.4&#10;&#9;&#9;&#9;&#9;c1.7,13.5,2.5,27.3,1.8,41h-137c-0.1-1.3-0.2-2.6-0.2-3.9C67.5,690.1,67.6,683,68,676z" style="fill: none;"/>
			<path class="st4" d="M162.9,586.8c-0.2-0.1-0.5-0.2-0.7-0.3C161.8,586.4,161.7,586.4,162.9,586.8z" style="fill: rgb(255, 255, 255);"/>
			<path class="st4" d="M183.1,603.2c-0.2-0.3-0.4-0.6-0.6-0.8C183.1,603.1,183.2,603.3,183.1,603.2z" style="fill: rgb(255, 255, 255);"/>
			<path class="st4" d="M148.6,582.9C146.3,582.6,149.7,583,148.6,582.9L148.6,582.9z" style="fill: rgb(255, 255, 255);"/>
			<path class="st13" d="M225.6,709c-0.5,5.7-4.4,10.5-10.5,10.5c-5.3,0-11-4.8-10.5-10.5c0.2-2.7,0.4-5.3,0.5-8h21&#10;&#9;&#9;&#9;&#9;C226,703.7,225.8,706.3,225.6,709z" style="fill: rgb(186, 132, 96);"/>
			<path class="st4" d="M193.3,621C192.4,618.7,193.8,622.1,193.3,621L193.3,621z" style="fill: rgb(255, 255, 255);"/>
			<path class="st4" d="M203.2,659.6C203,657.8,203.5,662.1,203.2,659.6L203.2,659.6z" style="fill: rgb(255, 255, 255);"/>
			<path class="st4" d="M173,592.9C172.7,592.6,173.7,593.3,173,592.9L173,592.9z" style="fill: rgb(255, 255, 255);"/>
			<path class="st4" d="M68.5,706.2c0,0.3,0.1,0.5,0.1,0.8C68.8,708.8,68,703.5,68.5,706.2z" style="fill: rgb(255, 255, 255);"/>
			<path class="st13" d="M68.1,701c0.1,1.2,0.2,2.4,0.3,3.5c0.1,0.6,0.1,1.1,0.2,1.7c-0.5-2.7,0.3,2.6,0.1,0.8&#10;&#9;&#9;&#9;&#9;c0-0.3-0.1-0.5-0.1-0.8c0,0,0,0,0,0c1,5.6-1.5,11.3-7.3,12.9c-5.1,1.4-11.9-1.7-12.9-7.3c-0.6-3.5-1.1-7.2-1.4-10.8H68.1z" style="fill: rgb(186, 132, 96);"/>
			<path class="st12" d="M50,649.1c5.2-30.5,19.3-61.8,47.4-77.4c30.3-16.8,71.7-13.6,96.3,11.6c21,21.6,28.2,53.2,31.2,82.2&#10;&#9;&#9;&#9;&#9;c1.2,11.7,1.7,23.7,1.2,35.5h-21c0.6-13.7-0.2-27.5-1.8-41c0-0.2,0-0.3,0-0.4c0.4,2.5-0.2-1.8,0,0c0,0,0,0,0,0&#10;&#9;&#9;&#9;&#9;c-0.1-0.8-0.2-1.6-0.4-2.4c-0.2-1.6-0.5-3.3-0.8-4.9c-0.6-3.6-1.4-7.2-2.2-10.8c-1.7-6.9-3.8-13.8-6.5-20.4c0,0,0,0,0,0&#10;&#9;&#9;&#9;&#9;c0.5,1.1-0.9-2.3,0,0c-0.1-0.1-0.1-0.3-0.3-0.6c-0.3-0.8-0.7-1.5-1.1-2.3c-0.7-1.5-1.5-3-2.3-4.5c-1.7-3.2-3.6-6.3-5.7-9.2&#10;&#9;&#9;&#9;&#9;c-0.3-0.4-0.6-0.8-0.8-1.2c0.1,0.1-0.1-0.1-0.6-0.8c0.2,0.3,0.4,0.6,0.6,0.8c-0.1-0.1-0.9-1.1-1-1.3c-1-1.3-2.2-2.5-3.3-3.7&#10;&#9;&#9;&#9;&#9;c-1.1-1.2-2.3-2.3-3.6-3.4c-0.6-0.6-1.2-1.1-1.9-1.6c-0.2-0.1-0.3-0.2-0.3-0.3c0.6,0.4-0.3-0.3,0,0c-0.2-0.1-0.4-0.3-0.8-0.6&#10;&#9;&#9;&#9;&#9;c-2.7-2-5.7-3.7-8.7-5.1c-0.2-0.1-0.9-0.4-1.4-0.6c0.2,0.1,0.5,0.2,0.7,0.3c-1.1-0.5-1.1-0.4-0.7-0.3c-0.6-0.2-1.2-0.5-1.8-0.7&#10;&#9;&#9;&#9;&#9;c-2-0.7-4-1.3-6-1.8c-1.8-0.5-3.7-0.8-5.5-1.1c-0.1,0-0.1,0-0.2,0c1.1,0.1-2.3-0.4,0,0c-0.2,0-0.4,0-0.9-0.1c-1-0.1-2-0.2-3-0.2&#10;&#9;&#9;&#9;&#9;c-4.7-0.3-9.5-0.1-14.2,0.3c-0.9,0.1-2.4,0.3-4.7,0.7c-2,0.4-4,0.9-6,1.4c-5,1.4-6.6,2.1-10.1,3.9c-3.3,1.6-6.4,3.6-9.3,5.8&#10;&#9;&#9;&#9;&#9;c0,0-0.1,0-0.1,0.1c0.8-0.7-1.9,1.4,0,0c-0.1,0.1-0.3,0.3-0.6,0.5c-0.7,0.6-1.4,1.2-2,1.7c-1.5,1.4-3,2.8-4.4,4.3&#10;&#9;&#9;&#9;&#9;c-1.2,1.3-2.4,2.6-3.5,4c-0.1,0.1-0.2,0.2-0.3,0.3c1.1-1.5-1.2,1.4,0,0c-0.1,0.1-0.1,0.2-0.2,0.3c-0.5,0.7-1,1.4-1.5,2.1&#10;&#9;&#9;&#9;&#9;c-2.2,3.1-4.1,6.4-5.9,9.8c-0.8,1.6-1.6,3.2-2.3,4.8c-0.2,0.5-0.5,1-0.7,1.5c0,0-0.1,0.2-0.4,0.9c0.1-0.3,0.3-0.6,0.4-0.9&#10;&#9;&#9;&#9;&#9;c0,0.1-0.6,1.4-0.7,1.7c-1.4,3.6-2.6,7.2-3.7,10.9c-2.1,6.9-3.5,14-4.6,21.2c-0.1,0.8-0.2,1.6-0.4,2.4c0.2-1.4-0.4,2.6,0,0.1&#10;&#9;&#9;&#9;&#9;c0,0,0,0,0-0.1c0,0.1,0,0.3-0.1,0.6c-0.2,1.6-0.4,3.2-0.5,4.9c-0.3,3.3-0.6,6.7-0.8,10c-0.4,7-0.4,14.1-0.1,21.2&#10;&#9;&#9;&#9;&#9;c0.1,1.3,0.1,2.6,0.2,3.9H46.8C45.3,683.8,47.2,665.8,50,649.1z" style="fill: rgb(9, 22, 30);"/>
			<path class="st4" d="M78.7,624.3c-0.1,0.3-0.3,0.6-0.4,0.9C78.6,624.5,78.7,624.3,78.7,624.3z" style="fill: rgb(255, 255, 255);"/>
			<path class="st4" d="M89.4,605.7C88.2,607.1,90.5,604.2,89.4,605.7L89.4,605.7z" style="fill: rgb(255, 255, 255);"/>
			<path class="st4" d="M69.3,660.5C69.3,660.5,69.3,660.5,69.3,660.5C69,663.1,69.5,659.1,69.3,660.5z" style="fill: rgb(255, 255, 255);"/>
			<path class="st4" d="M100.2,594.8C98.3,596.2,101,594.2,100.2,594.8L100.2,594.8z" style="fill: rgb(255, 255, 255);"/>
		</g>
		<path class="st13" d="M123.4,537l-2,28c0,8.3,6.7,15,15,15h2c8.3,0,15-6.7,15-15l-2-28" style="fill: rgb(186, 132, 96);"/>
		<g>
			<path class="st13" d="M112.3,517.1c0,15,12.1,32.3,30.1,35.2c23.3,3.8,29.7-2,28.1-25.2c-1.1-15.7,13.8-52-24.3-48.9&#10;&#9;&#9;&#9;&#9;C128.1,479.6,112.3,493.1,112.3,517.1z" style="fill: rgb(186, 132, 96);"/>
			<path class="st14" d="M172,492.7c17.4-10.2,11.7-34,11.7-34c-16,19.3-46.6-8.8-66.5,12.1c-23.1,24.2-0.5,66.2-0.5,66.2l3.3-12.3&#10;&#9;&#9;&#9;&#9;c0,0-1.3-24,7.3-32C127.4,492.7,158.3,500.7,172,492.7z" style="fill: rgb(51, 30, 14);"/>
			<path d="M 126.399997 513.700012 A 6.7 7.7 0 0 1 119.699997 521.400012 A 6.7 7.7 0 0 1 112.999997 513.700012 A 6.7 7.7 0 0 1 119.699997 506.000012 A 6.7 7.7 0 0 1 126.399997 513.700012 Z" class="st13" style="fill: rgb(186, 132, 96);"/>
		</g>
	</g>
	<path class="st7" d="M165.4,534h-26.8C138.6,534,152.1,556.5,165.4,534z" style="fill: rgb(35, 20, 11);"/>
</g>



</svg>