<?xml version="1.0" encoding="utf-8"?>
<svg id="master-artboard" viewBox="0 0 314.23150634765625 342.3150939941406" version="1.1" xmlns="http://www.w3.org/2000/svg" x="0px" y="0px" style="enable-background:new 0 0 1096 780;" width="314.23150634765625px" height="342.3150939941406px"><rect id="ee-background" x="0" y="0" width="314.23150634765625" height="342.3150939941406" style="fill: white; fill-opacity: 0; pointer-events: none;"/>

<path d="M 0 0 H 1096 V 780 H 0 V 0 Z" class="st0" style="fill: rgb(255, 255, 255); fill-opacity: 0;" transform="matrix(1, 0, 0, 1, -258.39228534698486, 1.3183279037475586)"/>




<path class="st1" d="M502.7,286.1H328.5c-16.5,0-30-13.5-30-30V80c0-16.5,13.5-30,30-30h174.2c16.5,0,30,13.5,30,30v176.1&#10;&#9;C532.7,272.6,519.2,286.1,502.7,286.1z" style="fill: rgb(214, 68, 0); fill-opacity: 1;" transform="matrix(1, 0, 0, 1, -258.39228534698486, 1.3183279037475586)"/>















<path class="st0" d="M415.6,89c-43.6,0-79,35.4-79,79c0,43.6,35.4,79,79,79c43.6,0,79-35.4,79-79C494.6,124.4,459.3,89,415.6,89z&#10;&#9; M388.2,144.3c5.5,0,10,4.6,10,10.6c0,6.1-4.5,11-10,11c-5.5,0-10-4.9-10-11C378.2,148.9,382.7,144.3,388.2,144.3z M443.6,220.1&#10;&#9;c-3-14-15.4-24.6-30.3-24.6s-27.4,10.6-30.3,24.6h-3.9c3-16.1,17.2-28.4,34.2-28.4c17,0,31.2,12.3,34.2,28.4H443.6z M443,165.9&#10;&#9;c-5.5,0-10-4.9-10-11c0-6.1,4.5-10.6,10-10.6c5.5,0,10,4.6,10,10.6C453,161,448.6,165.9,443,165.9z" style="fill: rgb(255, 255, 255);" transform="matrix(1, 0, 0, 1, -258.39228534698486, 1.3183279037475586)"/>






</svg>