<?xml version="1.0" encoding="utf-8"?>
<svg id="master-artboard" viewBox="0 0 215.76023864746094 215.71217346191406" version="1.1" xmlns="http://www.w3.org/2000/svg" x="0px" y="0px" style="enable-background:new 0 0 1096 780;" width="215.76023864746094px" height="215.71217346191406px"><rect id="ee-background" x="0" y="0" width="215.76023864746094" height="215.71217346191406" style="fill: white; fill-opacity: 0; pointer-events: none;"/>

<path d="M 0 0 H 1096 V 780 H 0 V 0 Z" class="st0" style="fill: rgb(255, 255, 255); fill-opacity: 0;" transform="matrix(1, 0, 0, 1, -314.72264099121094, -271.69415283203125)"/><g transform="matrix(1, 0, 0, 1, -314.72264099121094, -271.69415283203125)">
	<path class="st3" d="M345.9,487.1h153.2c16.5,0,30-13.5,30-30V302.9c0-16.5-13.5-30-30-30H345.9c-16.5,0-30,13.5-30,30v154.3&#10;&#9;&#9;C315.9,473.6,329.4,487.1,345.9,487.1z" style="fill: rgb(240, 96, 36);"/>
	
	<g>
		<path class="st0" d="M422.6,310c-38.6,0-70,31.3-70,70c0,38.6,31.3,70,70,70c38.6,0,70-31.3,70-70&#10;&#9;&#9;&#9;C492.5,341.4,461.2,310,422.6,310z M439.5,349.7c4.6,0,8.4,3.8,8.4,8.4c0,4.6-3.8,8.4-8.4,8.4c-4.6,0-8.4-3.8-8.4-8.4&#10;&#9;&#9;&#9;C431.1,353.4,434.8,349.7,439.5,349.7z M404.4,349.7c4.6,0,8.4,3.8,8.4,8.4c0,4.6-3.8,8.4-8.4,8.4c-4.6,0-8.4-3.8-8.4-8.4&#10;&#9;&#9;&#9;C396,353.4,399.8,349.7,404.4,349.7z M459,407.1c-1.6,1.7-4.2,1.9-5.9,0.3c-8.3-7.5-19.1-11.7-30.4-11.7&#10;&#9;&#9;&#9;c-11.3,0-22.1,4.2-30.5,11.8c-0.8,0.7-1.8,1.1-2.8,1.1c-1.1,0-2.3-0.5-3.1-1.4c-1.6-1.7-1.4-4.4,0.3-5.9&#10;&#9;&#9;&#9;c9.9-9,22.7-13.9,36.1-13.9c13.3,0,26.1,4.9,36,13.9C460.4,402.7,460.6,405.3,459,407.1z" style="fill: rgb(255, 255, 255);"/>
	</g>
</g>














</svg>