<?xml version="1.0" encoding="utf-8"?>
<svg id="master-artboard" viewBox="0 0 218.21905517578125 218.17105102539062" version="1.1" xmlns="http://www.w3.org/2000/svg" x="0px" y="0px" style="enable-background:new 0 0 1096 780;" width="218.21905517578125px" height="218.17105102539062px"><rect id="ee-background" x="0" y="0" width="218.21905517578125" height="218.17105102539062" style="fill: white; fill-opacity: 0; pointer-events: none;"/>

<path d="M 0 0 H 1096 V 780 H 0 V 0 Z" class="st0" style="fill: rgb(255, 255, 255); fill-opacity: 0;" transform="matrix(1, 0, 0, 1, -564.2877197265625, -510.1947937011719)"/>











<g transform="matrix(1, 0, 0, 1, -564.2877197265625, -510.1947937011719)">
	<path class="st5" d="M750.1,726.1H596.8c-16.5,0-30-13.5-30-30V541.9c0-16.5,13.5-30,30-30h153.2c16.5,0,30,13.5,30,30v154.3&#10;&#9;&#9;C780.1,712.6,766.6,726.1,750.1,726.1z" style="fill: rgb(255, 203, 8);"/>
	<path class="st5" d="M778.3,698.1v-69.4c-0.2-0.1-0.3-0.3-0.4-0.4c-0.7-0.7-1.4-1.4-2.1-2.1c-0.7-0.7-1.4-1.4-2.1-2.1&#10;&#9;&#9;c-0.7-0.7-1.4-1.4-2.1-2.1c-0.7-0.7-1.4-1.4-2.1-2.1c-0.7-0.7-1.4-1.4-2.1-2.1c-0.7-0.7-1.4-1.4-2.1-2.1c-0.7-0.7-1.4-1.4-2.1-2.1&#10;&#9;&#9;c-0.7-0.7-1.4-1.4-2.1-2.1c-0.7-0.7-1.4-1.4-2.1-2.1c-0.7-0.7-1.4-1.4-2.1-2.1c-0.7-0.7-1.4-1.4-2.1-2.1c-0.7-0.7-1.4-1.4-2.1-2.1&#10;&#9;&#9;c-0.7-0.7-1.4-1.4-2.1-2.1c-0.7-0.7-1.4-1.4-2.1-2.1c-0.7-0.7-1.4-1.4-2.1-2.1c-0.7-0.7-1.4-1.4-2.1-2.1c-0.7-0.7-1.4-1.4-2.1-2.1&#10;&#9;&#9;c-0.7-0.7-1.4-1.4-2.1-2.1c-0.7-0.7-1.4-1.4-2.1-2.1c-0.7-0.7-1.4-1.4-2.1-2.1c-0.7-0.7-1.4-1.4-2.1-2.1c-0.7-0.7-1.4-1.4-2.1-2.1&#10;&#9;&#9;c-0.7-0.7-1.4-1.4-2.1-2.1c-0.7-0.7-1.4-1.4-2.1-2.1c-0.7-0.7-1.4-1.4-2.1-2.1c-0.7-0.7-1.4-1.4-2.1-2.1c-0.7-0.7-1.4-1.4-2.1-2.1&#10;&#9;&#9;c-12.7-13.3-30.6-21.6-50.5-21.6c-38.6,0-70,31.3-70,70c0,19.8,8.3,37.7,21.5,50.5c0.7,0.7,1.4,1.4,2.1,2.1&#10;&#9;&#9;c0.7,0.7,1.4,1.4,2.1,2.1c0.7,0.7,1.4,1.4,2.1,2.1c0.7,0.7,1.4,1.4,2.1,2.1c0.7,0.7,1.4,1.4,2.1,2.1c0.7,0.7,1.4,1.4,2.1,2.1&#10;&#9;&#9;c0.7,0.7,1.4,1.4,2.1,2.1c0.7,0.7,1.4,1.4,2.1,2.1c0.7,0.7,1.4,1.4,2.1,2.1c0.7,0.7,1.4,1.4,2.1,2.1c0.7,0.7,1.4,1.4,2.1,2.1&#10;&#9;&#9;c0.7,0.7,1.4,1.4,2.1,2.1c0.7,0.7,1.4,1.4,2.1,2.1c0.7,0.7,1.4,1.4,2.1,2.1c0.7,0.7,1.4,1.4,2.1,2.1c0.7,0.7,1.4,1.4,2.1,2.1&#10;&#9;&#9;c0.7,0.7,1.4,1.4,2.1,2.1c0.7,0.7,1.4,1.4,2.1,2.1c0.7,0.7,1.4,1.4,2.1,2.1c0.7,0.7,1.4,1.4,2.1,2.1c0.7,0.7,1.4,1.4,2.1,2.1&#10;&#9;&#9;c0.7,0.7,1.4,1.4,2.1,2.1c0.7,0.7,1.4,1.4,2.1,2.1c0.7,0.7,1.4,1.4,2.1,2.1c0.7,0.7,1.4,1.4,2.1,2.1c0.7,0.7,1.4,1.4,2.1,2.1&#10;&#9;&#9;c0.7,0.7,1.4,1.4,2.1,2.1c0.3,0.3,0.6,0.6,1,1h68.4C764.8,728.1,778.3,714.6,778.3,698.1z" style="fill: rgb(255, 203, 8);"/>
	<g>
		<path class="st0" d="M673.4,549c-38.6,0-70,31.3-70,70c0,38.6,31.3,70,70,70s70-31.3,70-70C743.4,580.3,712.1,549,673.4,549z&#10;&#9;&#9;&#9; M690.3,588.6c4.6,0,8.4,3.8,8.4,8.4c0,4.6-3.8,8.4-8.4,8.4c-4.6,0-8.4-3.8-8.4-8.4C681.9,592.4,685.7,588.6,690.3,588.6z&#10;&#9;&#9;&#9; M655.3,588.6c4.6,0,8.4,3.8,8.4,8.4c0,4.6-3.8,8.4-8.4,8.4c-4.6,0-8.4-3.8-8.4-8.4C646.9,592.4,650.7,588.6,655.3,588.6z&#10;&#9;&#9;&#9; M709.6,639.3c-9.9,8.9-22.7,13.9-36,13.9c-13.4,0-26.2-4.9-36.1-13.9c-1.7-1.6-1.8-4.2-0.3-5.9c1.6-1.7,4.2-1.8,5.9-0.3&#10;&#9;&#9;&#9;c8.3,7.6,19.2,11.7,30.5,11.7c11.3,0,22-4.1,30.4-11.7c1.7-1.5,4.4-1.4,5.9,0.3C711.4,635,711.3,637.7,709.6,639.3z" style="fill: rgb(255, 255, 255);"/>
	</g>
</g>


</svg>