<?xml version="1.0" encoding="utf-8"?>
<svg id="master-artboard" viewBox="0 0 883.4122924804688 640.9508666992188" version="1.1" xmlns="http://www.w3.org/2000/svg" x="0px" y="0px" style="enable-background:new 0 0 1400 980;" width="883.4122924804688px" height="640.9508666992188px"><rect id="ee-background" x="0" y="0" width="883.4122924804688" height="640.9508666992188" style="fill: white; fill-opacity: 0; pointer-events: none;"/>

<path d="M -1 -1 H 1408 V 988 H -1 V -1 Z" class="st0" style="fill: rgb(58, 78, 111); fill-opacity: 0;" transform="matrix(0.6729044914245605, 0, 0, 0.6729044914245605, -36.329917907714844, -19.57393503189087)"/>



<g transform="matrix(0.5919525623321533, 0, 0, 0.5919525623321533, 401.58233385479434, 193.59264365422686)">
	<path class="st12" d="M651.3,369.2c-0.1-1.2,0.2-2.9,0-4.1l0.2-47.1H572v55.3c0,4.4,0,8.9,0,13.3c0,0.5,0,1,0,1.4&#10;&#9;&#9;c0,43.5,0,86.9,0,130.4c0,4.9,0,9.8,0,14.7c0,8,7.3,14.7,15.3,14.7c7.9,0.1,11-6.6,11-14.5c0-48.4,0.7-96.8,0.7-145.1&#10;&#9;&#9;c0-4.9,0-9.8,0-14.7c0-1.1,0.3-2.1,0.3-3.1c0-1.3,0.3-1.8,0.4-2.7c0.1-0.4,0.2-1.7,0.3-2.1c0.2-1,0.6-2,0.8-3.1&#10;&#9;&#9;c0.2-0.6,0.4-1.2,0.6-1.9c0.2-0.4,0.3-0.8,0.5-1.1c0.4-0.9,2.6-4,2.6-4.2c0.7-0.7,1.4-1.4,2.1-2.1c0.8-0.5,1.6-1,2.4-1.4&#10;&#9;&#9;c0,0,0.1,0,0.1-0.1c0.4-0.1,0.7-0.2,1.1-0.3c0.5-0.1,0.9-0.2,1.4-0.3c0.1,0,0.3,0,0.5,0c0.6,0,1.2,0,1.8,0c1,0.3,2.5,0.9,3.2,1.1&#10;&#9;&#9;c0.3,0.2,0.7,0.4,1,0.6c-0.7-0.4,1.9,1.8,3,2.8c0.5,0.7,0.9,1.5,1.4,2.2c0.4,0.7,0.7,1.3,1,2c0.2,0.5,0.3,1,0.5,1.4&#10;&#9;&#9;c0.7,2,1,3.8,1.3,5.9c0,0,0,0.1,0,0.1c0,0.2,0,0.8,0.1,1c0.1,0.6-0.1,1.3,0,1.9c0,1-0.2,2-0.2,3.1c0,48.4,0.9,96.7,0.9,145.1&#10;&#9;&#9;c0,4.9,0,9.8,0,14.7c0,8,4.9,14.7,12.9,14.7c7.9,0.1,12.1-6.6,12.1-14.5c0-48.4,0-96.8,0-145.1c0-4.9,0-9.8,0-14.7&#10;&#9;&#9;C651,372.1,651.4,370.7,651.3,369.2z M601.2,361.2C601.1,361.6,601.1,361.5,601.2,361.2L601.2,361.2z M609.8,351.5&#10;&#9;&#9;C610.6,351.1,611.2,350.9,609.8,351.5L609.8,351.5z" style="fill: rgb(9, 22, 30);"/>
	<path class="st6" d="M652,180c0,21.6-17.8,39-39.4,39h-1.5c-21.6,0-39.1-17.4-39.1-39v-75.9c0-21.6,17.5-39.1,39.1-39.1h1.5&#10;&#9;&#9;c21.6,0,39.4,17.5,39.4,39.1V180z" style="fill: rgb(193, 138, 83);"/>
	<path class="st5" d="M638.9,116.4c0.1,14.4-6.7,29.7-23.7,33.9c-21.2,5.2-32,10.2-33.1-24c-0.5-15-12.5-49.8,24.1-47&#10;&#9;&#9;C623.6,80.5,638.7,93.4,638.9,116.4z" style="fill: rgb(255, 213, 184);"/>
	<path class="st15" d="M646.1,254.8l11.7-55.9c0-19.2-15.2-34.9-34.4-34.9h-22.8c-19.2,0-34.4,15.6-34.4,34.8l12.7,55.9&#10;&#9;&#9;c1.5-4.6-25.9,59.9-14.7,147.2h95.6C674.4,321.8,644.3,248.9,646.1,254.8z" style="fill: rgb(252, 84, 101);"/>
	<g>
		<path class="st3" d="M665.3,221.9c0.1,0.3,0.3,0.6,0.4,0.9C665.4,222.1,665.3,221.9,665.3,221.9z" style="fill: none;"/>
		<path class="st3" d="M553.8,256.3C554,254.5,553.4,258.7,553.8,256.3L553.8,256.3z" style="fill: none;"/>
		<path class="st3" d="M563.4,218.7C564.3,216.5,562.9,219.8,563.4,218.7L563.4,218.7z" style="fill: none;"/>
		<path class="st3" d="M674.5,257.1C674.5,257.2,674.5,257.2,674.5,257.1C674.8,259.7,674.3,255.8,674.5,257.1z" style="fill: none;"/>
		<path class="st3" d="M675.3,301.7c0,0.3-0.1,0.5-0.1,0.8C675,304.2,675.7,299,675.3,301.7z" style="fill: none;"/>
		<path class="st5" d="M563.8,181.3c-0.2,0.2-0.5,0.4-0.7,0.7c-20.5,21-27.5,51.9-30.4,80.1c-1.2,11.4-1.7,23-1.2,34.6&#10;&#9;&#9;&#9;c0.1,2.6,0.3,5.2,0.5,7.8c0.5,5.6,4.3,10.2,10.2,10.2c5.2,0,10.7-4.7,10.2-10.2c-0.2-2.6-0.4-5.2-0.5-7.8&#10;&#9;&#9;&#9;c-0.6-13.3,0.2-26.8,1.8-39.9c0-0.2,0-0.3,0-0.4c-0.3,2.5,0.2-1.7,0,0c0,0,0,0,0,0c0.1-0.8,0.2-1.6,0.3-2.4&#10;&#9;&#9;&#9;c0.2-1.6,0.5-3.2,0.8-4.8c0.6-3.5,1.4-7,2.2-10.5c1.6-6.8,3.7-13.4,6.3-19.9c0,0,0,0,0,0c-0.5,1.1,0.9-2.2,0,0&#10;&#9;&#9;&#9;c0.1-0.1,0.1-0.3,0.3-0.6c0.3-0.8,0.7-1.5,1-2.3c0.7-1.5,1.5-3,2.2-4.4c0.5-1,1-1.9,1.6-2.8l-5.1-22.4&#10;&#9;&#9;&#9;C563.4,184.5,563.5,182.9,563.8,181.3z" style="fill: rgb(255, 213, 184);"/>
		<path class="st5" d="M693.3,246.1c-4.2-24.6-14.3-49.8-33.3-66.3c0.4,2.1,0.6,4.3,0.6,6.5l-4.1,19.7c0.1,0.1,0.1,0.2,0.2,0.2&#10;&#9;&#9;&#9;c2.1,3.1,4,6.3,5.7,9.6c0.8,1.5,1.5,3.1,2.3,4.7c0.2,0.5,0.4,1,0.7,1.5c0,0,0.1,0.2,0.4,0.9c-0.1-0.3-0.3-0.6-0.4-0.9&#10;&#9;&#9;&#9;c0,0.1,0.6,1.4,0.7,1.6c1.4,3.5,2.6,7,3.6,10.6c2,6.8,3.4,13.7,4.5,20.6c0.1,0.8,0.2,1.6,0.4,2.4c-0.2-1.3,0.4,2.5,0,0.1&#10;&#9;&#9;&#9;c0,0,0,0,0-0.1c0,0.1,0,0.3,0.1,0.5c0.2,1.6,0.4,3.1,0.5,4.7c0.3,3.3,0.6,6.5,0.7,9.8c0.4,6.9,0.4,13.7,0.1,20.6&#10;&#9;&#9;&#9;c-0.1,1.3-0.1,2.5-0.2,3.8c-0.1,1.1-0.2,2.3-0.3,3.4c0,0.5-0.1,1.1-0.2,1.6c0.5-2.6-0.3,2.5-0.1,0.8c0-0.3,0.1-0.5,0.1-0.8&#10;&#9;&#9;&#9;c0,0,0,0,0,0c-1,5.5,1.4,11,7.1,12.6c5,1.4,11.6-1.7,12.6-7.1c0.6-3.5,1.1-7,1.4-10.5C697.9,279.8,696.1,262.3,693.3,246.1z" style="fill: rgb(255, 213, 184);"/>
		<path class="st3" d="M573.3,201.3c0.2-0.3,0.4-0.6,0.6-0.8C573.4,201.2,573.3,201.4,573.3,201.3z" style="fill: none;"/>
		<path class="st3" d="M583.2,191.3C583.5,191,582.6,191.7,583.2,191.3L583.2,191.3z" style="fill: none;"/>
		<path class="st3" d="M593.1,185.4c0.2-0.1,0.5-0.2,0.7-0.3C594.1,184.9,594.2,184.9,593.1,185.4z" style="fill: none;"/>
		<path class="st3" d="M654.9,203.8C656,205.1,653.8,202.3,654.9,203.8L654.9,203.8z" style="fill: none;"/>
		<path class="st3" d="M607,181.6C609.2,181.2,605.9,181.6,607,181.6L607,181.6z" style="fill: none;"/>
		<path class="st3" d="M648.1,245.8l0-0.1C648,245.3,648,245.3,648.1,245.8z" style="fill: none;"/>
		<path class="st3" d="M576.9,245.6L576.9,245.6C577,245.4,577,245.3,576.9,245.6z" style="fill: none;"/>
		<path class="st3" d="M644.4,193.2C646.2,194.5,643.6,192.5,644.4,193.2L644.4,193.2z" style="fill: none;"/>
		<path class="st15" d="M660,179.7c-3.9-3.4-8.2-6.5-12.9-9.1c-29.2-16.2-59.5-13.3-83.4,10.6c-0.2,1.6-0.3,3.2-0.3,4.9l5.1,22.4&#10;&#9;&#9;&#9;c1.2-2.1,2.6-4.2,4-6.2c0.3-0.4,0.5-0.8,0.8-1.1c-0.1,0.1,0.1-0.1,0.6-0.8c-0.2,0.3-0.4,0.6-0.6,0.8c0.1-0.1,0.8-1.1,1-1.3&#10;&#9;&#9;&#9;c1-1.2,2.1-2.4,3.2-3.6c1.1-1.2,2.3-2.3,3.5-3.3c0.6-0.5,1.2-1.1,1.8-1.6c0.2-0.1,0.3-0.2,0.3-0.3c-0.6,0.4,0.3-0.3,0,0&#10;&#9;&#9;&#9;c0.2-0.1,0.4-0.3,0.8-0.6c2.7-1.9,5.5-3.6,8.5-5c0.2-0.1,0.9-0.4,1.3-0.6c-0.2,0.1-0.5,0.2-0.7,0.3c1.1-0.5,1.1-0.4,0.7-0.3&#10;&#9;&#9;&#9;c0.6-0.2,1.1-0.4,1.7-0.7c1.9-0.7,3.9-1.3,5.9-1.8c1.8-0.4,3.6-0.8,5.4-1.1c0.1,0,0.1,0,0.2,0c-1,0.1,2.2-0.4,0,0&#10;&#9;&#9;&#9;c0.2,0,0.4,0,0.8-0.1c1-0.1,2-0.2,2.9-0.2c4.6-0.3,0.5-0.1,5.1,0.3c0.8,0.1,2.4,0.3,4.6,0.7c2,0.4,3.9,0.9,5.9,1.4&#10;&#9;&#9;&#9;c4.9,1.3,6.5,2.1,9.9,3.8c3.2,1.6,5.2,3.5,8.1,5.6c0,0,0.1,0,0.1,0.1c-0.8-0.6,1.8,1.3,0,0c0.1,0.1,0.3,0.2,0.6,0.5&#10;&#9;&#9;&#9;c0.7,0.5,1.3,1.1,2,1.7c1.5,1.3,2.9,2.8,4.3,4.2c1.2,1.2,2.3,2.6,3.4,3.9c0.1,0.1,0.2,0.2,0.3,0.3c-1.1-1.4,1.1,1.4,0,0&#10;&#9;&#9;&#9;c0.1,0.1,0.1,0.2,0.2,0.3c0.5,0.6,0.9,1.2,1.3,1.9l4.1-19.7C660.6,184,660.4,181.9,660,179.7z" style="fill: rgb(252, 84, 101);"/>
	</g>
	<path class="st5" d="M626.1,139.8l2,28c-0.1,6.5-6.8,13.2-15.1,13.2h-2c-8.3,0-15-6.7-15-15l2-28" style="fill: rgb(255, 213, 184);"/>
	<path class="st6" d="M578,101h20l2.5-9.4l3.5,9.4h35l-13-29.8l-38.3,4.4C587.7,75.6,577,93,578,101z" style="fill: rgb(193, 138, 83);"/>
	<path class="st6" d="M626,97.7c0,0,5.2,20.5,0.5,47.9c0,0,10.8-3.5,17.7-21.2c2.4-6.2-2.6-26.7-2.6-26.7" style="fill: rgb(193, 138, 83);"/>
	<path class="st5" d="M637.3,122.7c0,4.2-3,7.7-6.7,7.7c-3.7,0-6.7-3.4-6.7-7.7c0-4.2,4-7.7,7.7-7.7&#10;&#9;&#9;C635.3,115,637.3,118.4,637.3,122.7z" style="fill: rgb(255, 213, 184);"/>
	<path class="st7" d="M587,134h26.8C613.8,134,600.3,156.5,587,134z" style="fill: rgb(35, 20, 11);"/>
</g>
<g transform="matrix(0.5919525623321533, 0, 0, 0.5919525623321533, -26.181364885086452, 198.69722923388218)">
	<g>
		<path class="st14" d="M438,95.2c0,22.4-17,40.5-38,40.5c-21,0-38-18.1-38-40.5c0-22.4,17-37.5,38-37.5C421,57.7,438,72.8,438,95.2&#10;&#9;&#9;&#9;z" style="fill: rgb(51, 30, 14);"/>
		<path class="st14" d="M443,60.9c0,9.7-7.4,17.5-16.4,17.5c-9.1,0-16.4-7.8-16.4-17.5c0-9.7,7.4-16.2,16.4-16.2&#10;&#9;&#9;&#9;C435.6,44.7,443,51.2,443,60.9z" style="fill: rgb(51, 30, 14);"/>
		<path class="st13" d="M437.3,360.2c-0.1-1.2,0.2-2.9,0-4.1l0.2-47.1H358v55.3c0,4.4,0,8.9,0,13.3c0,0.5,0,1,0,1.4&#10;&#9;&#9;&#9;c0,43.5,0,86.9,0,130.4c0,4.9,0,9.8,0,14.7c0,8,7.3,14.7,15.3,14.7c7.9,0.1,11-6.6,11-14.5c0-48.4,0.7-96.8,0.7-145.1&#10;&#9;&#9;&#9;c0-4.9,0-9.8,0-14.7c0-1.1,0.3-2.1,0.3-3.1c0-1.3,0.3-1.8,0.4-2.7c0.1-0.4,0.2-1.7,0.3-2.1c0.2-1,0.6-2,0.8-3.1&#10;&#9;&#9;&#9;c0.2-0.6,0.4-1.2,0.6-1.9c0.2-0.4,0.3-0.8,0.5-1.1c0.4-0.9,2.6-4,2.6-4.2c0.7-0.7,1.4-1.4,2.1-2.1c0.8-0.5,1.6-1,2.4-1.4&#10;&#9;&#9;&#9;c0,0,0.1,0,0.1-0.1c0.4-0.1,0.7-0.2,1.1-0.3c0.5-0.1,0.9-0.2,1.4-0.3c0.1,0,0.3,0,0.5,0c0.6,0,1.2,0,1.8,0c1,0.3,2.5,0.9,3.2,1.1&#10;&#9;&#9;&#9;c0.3,0.2,0.7,0.4,1,0.6c-0.7-0.4,1.9,1.8,3,2.8c0.5,0.7,0.9,1.5,1.4,2.2c0.4,0.7,0.7,1.3,1,2c0.2,0.5,0.3,1,0.5,1.4&#10;&#9;&#9;&#9;c0.7,2,1,3.8,1.3,5.9c0,0,0,0.1,0,0.1c0,0.2,0,0.8,0.1,1c0.1,0.6-0.1,1.3,0,1.9c0,1-0.2,2-0.2,3.1c0,48.4,0.9,96.7,0.9,145.1&#10;&#9;&#9;&#9;c0,4.9,0,9.8,0,14.7c0,8,4.9,14.7,12.9,14.7c7.9,0.1,12.1-6.6,12.1-14.5c0-48.4,0-96.8,0-145.1c0-4.9,0-9.8,0-14.7&#10;&#9;&#9;&#9;C437,363.1,437.4,361.7,437.3,360.2z M387.2,352.2C387.1,352.6,387.1,352.5,387.2,352.2L387.2,352.2z M395.8,342.5&#10;&#9;&#9;&#9;C396.6,342.1,397.2,341.9,395.8,342.5L395.8,342.5z" style="fill: rgb(186, 132, 96);"/>
		<path class="st13" d="M424.9,107.4c0.1,14.4-6.7,29.7-23.7,33.9c-21.2,5.2-32,10.2-33.1-24c-0.5-15-12.5-49.8,24.1-47&#10;&#9;&#9;&#9;C409.6,71.5,424.7,84.4,424.9,107.4z" style="fill: rgb(186, 132, 96);"/>
		<g>
			<path class="st3" d="M451.3,212.9c0.1,0.3,0.3,0.6,0.4,0.9C451.4,213.1,451.3,212.9,451.3,212.9z" style="fill: none;"/>
			<path class="st3" d="M339.8,247.3C340,245.5,339.4,249.7,339.8,247.3L339.8,247.3z" style="fill: none;"/>
			<path class="st3" d="M349.4,209.7C350.3,207.5,348.9,210.8,349.4,209.7L349.4,209.7z" style="fill: none;"/>
			<path class="st3" d="M460.5,248.1C460.5,248.2,460.5,248.2,460.5,248.1C460.8,250.7,460.3,246.8,460.5,248.1z" style="fill: none;"/>
			<path class="st3" d="M461.3,292.7c0,0.3-0.1,0.5-0.1,0.8C461,295.2,461.7,290,461.3,292.7z" style="fill: none;"/>
			<path class="st3" d="M359.3,192.3c0.2-0.3,0.4-0.6,0.6-0.8C359.4,192.2,359.3,192.4,359.3,192.3z" style="fill: none;"/>
			<path class="st3" d="M369.2,182.3C369.5,182,368.6,182.7,369.2,182.3L369.2,182.3z" style="fill: none;"/>
			<path class="st3" d="M379.1,176.4c0.2-0.1,0.5-0.2,0.7-0.3C380.1,175.9,380.2,175.9,379.1,176.4z" style="fill: none;"/>
			<path class="st3" d="M440.9,194.8C442,196.1,439.8,193.3,440.9,194.8L440.9,194.8z" style="fill: none;"/>
			<path class="st3" d="M393,172.6C395.2,172.2,391.9,172.6,393,172.6L393,172.6z" style="fill: none;"/>
			<path class="st3" d="M434.1,236.8l0-0.1C434,236.3,434,236.3,434.1,236.8z" style="fill: none;"/>
			<path class="st3" d="M362.9,236.6L362.9,236.6C363,236.4,363,236.3,362.9,236.6z" style="fill: none;"/>
			<path class="st3" d="M430.4,184.2C432.2,185.5,429.6,183.5,430.4,184.2L430.4,184.2z" style="fill: none;"/>
		</g>
		<path class="st14" d="M364,92h20l2.5-9.4L390,92l33,7l-6.3-34l-41,1.6C375.7,66.6,363,84,364,92z" style="fill: rgb(51, 30, 14);"/>
		<path class="st14" d="M412,88.7c0,0,5.2,20.5,0.5,47.9c0,0,10.8-3.5,17.7-21.2c2.4-6.2-2.6-26.7-2.6-26.7" style="fill: rgb(51, 30, 14);"/>
		<path class="st13" d="M423.3,113.7c0,4.2-3,7.7-6.7,7.7c-3.7,0-6.7-3.4-6.7-7.7c0-4.2,4-7.7,7.7-7.7&#10;&#9;&#9;&#9;C421.3,106,423.3,109.4,423.3,113.7z" style="fill: rgb(186, 132, 96);"/>
	</g>
	<g>
		<path class="st3" d="M451.3,212.9c0.1,0.3,0.3,0.6,0.4,0.9C451.4,213.1,451.3,212.9,451.3,212.9z" style="fill: none;"/>
		<path class="st3" d="M349.4,209.7C350.3,207.5,348.9,210.8,349.4,209.7L349.4,209.7z" style="fill: none;"/>
		<path class="st3" d="M339.8,247.3C340,245.5,339.4,249.7,339.8,247.3L339.8,247.3z" style="fill: none;"/>
		<path class="st3" d="M460.5,248.1C460.5,248.2,460.5,248.2,460.5,248.1C460.8,250.7,460.3,246.8,460.5,248.1z" style="fill: none;"/>
		<path class="st3" d="M461.3,292.7c0,0.3-0.1,0.5-0.1,0.8C461,295.2,461.7,290,461.3,292.7z" style="fill: none;"/>
		<g>
			<path class="st1" d="M437.7,263h-78.5c-6.2,22.2-14.7,64-10.5,115h98.4C452.8,329.9,444,286.2,437.7,263z" style="fill: rgb(14, 36, 53);"/>
			<path class="st1" d="M432.1,245.6l10.3-48.8c0,0,0.1,0.1,0.1,0.1c0.1,0.1,0.1,0.2,0.2,0.2c2.1,3.1,4,6.3,5.7,9.6&#10;&#9;&#9;&#9;&#9;c0.1,0.2,0.2,0.5,0.3,0.7l17.3-10.9c-5.1-9.7-11.7-18.6-20-25.8c-3.9-3.4-8.2-6.5-12.9-9.1c-29.2-16.2-59.5-13.3-83.4,10.6&#10;&#9;&#9;&#9;&#9;c-0.2,0.2-0.5,0.4-0.7,0.7c-6.9,7-12.2,15.2-16.4,24l17.5,11c0.2-0.4,0.3-0.7,0.5-1.1c0.7-1.5,1.5-3,2.2-4.4&#10;&#9;&#9;&#9;&#9;c0.5-0.9,1-1.9,1.6-2.8l10.5,46c0,0.1-0.1,0.2-0.2,0.3h67.5C432.2,245.9,432.2,245.7,432.1,245.6z" style="fill: rgb(14, 36, 53);"/>
			<path class="st2" d="M432.3,246h-67.5c-0.7,1.6-3,7.5-5.6,17h78.5C435.1,253.8,433,247.8,432.3,246z" style="fill: rgb(20, 62, 91);"/>
			<path class="st2" d="M444.8,393c0.9-5,1.6-10,2.2-15h-98.4c0.4,4.9,0.9,9.9,1.6,15H444.8z" style="fill: rgb(20, 62, 91);"/>
		</g>
		<path class="st13" d="M412.1,130.8l2,28c-0.1,6.5-6.8,13.2-15.1,13.2h-2c-8.3,0-15-6.7-15-15l2-28" style="fill: rgb(186, 132, 96);"/>
		<path class="st13" d="M318.7,253c-1.2,11.4-1.7,23-1.2,34.6c0.1,2.6,0.3,5.2,0.5,7.8c0.5,5.6,4.3,10.2,10.2,10.2&#10;&#9;&#9;&#9;c5.2,0,10.7-4.7,10.2-10.2c-0.2-2.6-0.4-5.2-0.5-7.8c-0.6-13.3,0.2-26.8,1.8-39.9c0-0.2,0-0.3,0-0.4c-0.3,2.5,0.2-1.7,0,0&#10;&#9;&#9;&#9;c0,0,0,0,0,0c0.1-0.8,0.2-1.6,0.3-2.4c0.2-1.6,0.5-3.2,0.8-4.8c0.6-3.5,1.4-7,2.2-10.5c1.6-6.8,3.7-13.4,6.3-19.9c0,0,0,0,0,0&#10;&#9;&#9;&#9;c-0.5,1.1,0.9-2.2,0,0c0.1-0.1,0.1-0.3,0.3-0.6c0.2-0.4,0.4-0.8,0.5-1.2l-17.5-11C324.4,214.3,320.6,234.3,318.7,253z" style="fill: rgb(186, 132, 96);"/>
		<path class="st13" d="M479.3,237.1c-2.4-13.9-6.6-27.9-13.3-40.5l-17.3,10.9c0.7,1.3,1.3,2.6,1.9,4c0.2,0.5,0.4,1,0.7,1.5&#10;&#9;&#9;&#9;c0,0,0.1,0.2,0.4,0.9c-0.1-0.3-0.3-0.6-0.4-0.9c0,0.1,0.6,1.4,0.7,1.6c1.4,3.5,2.6,7,3.6,10.6c2,6.8,3.4,13.7,4.5,20.6&#10;&#9;&#9;&#9;c0.1,0.8,0.2,1.6,0.4,2.4c-0.2-1.3,0.4,2.5,0,0.1c0,0,0,0,0-0.1c0,0.1,0,0.3,0.1,0.5c0.2,1.6,0.4,3.1,0.5,4.7&#10;&#9;&#9;&#9;c0.3,3.3,0.6,6.5,0.7,9.8c0.4,6.9,0.4,13.7,0.1,20.6c-0.1,1.3-0.1,2.5-0.2,3.8c-0.1,1.1-0.2,2.3-0.3,3.4c0,0.5-0.1,1.1-0.2,1.6&#10;&#9;&#9;&#9;c0.5-2.6-0.3,2.5-0.1,0.8c0-0.3,0.1-0.5,0.1-0.8c0,0,0,0,0,0c-1,5.5,1.4,11,7.1,12.6c5,1.4,11.6-1.7,12.6-7.1&#10;&#9;&#9;&#9;c0.6-3.5,1.1-7,1.4-10.5C483.9,270.8,482.1,253.3,479.3,237.1z" style="fill: rgb(186, 132, 96);"/>
		<path class="st7" d="M373,125h26.8C399.8,125,386.3,147.5,373,125z" style="fill: rgb(35, 20, 11);"/>
	</g>
	<path class="st13" d="M397.8,199.5L397.8,199.5c0,0-21.4-34-14.8-43.5c4.6-6.6,25.4-6.6,30,0C419.6,165.5,397.8,199.5,397.8,199.5z&#10;&#9;&#9;" style="fill: rgb(186, 132, 96);"/>
	<path class="st2" d="M397.8,199.5l5.9,14.3l21.2-38.5L420,172l17.7-11.5c0,0-9.3-9.4-23.9-7.7C413.8,152.8,415.7,172.6,397.8,199.5&#10;&#9;&#9;z" style="fill: rgb(20, 62, 91);"/>
	<path class="st2" d="M398.7,199.5l-5.9,14.3l-21.2-38.5l4.9-3.3l-17.7-11.5c0,0,9.3-9.4,23.9-7.7&#10;&#9;&#9;C382.7,152.8,380.8,172.6,398.7,199.5z" style="fill: rgb(20, 62, 91);"/>
</g>

<g transform="matrix(0.5919525623321533, 0, 0, 0.5919525623321533, 289.2815974614511, -42.238885503227465)">
	<g>
		<g>
			<path class="st1" d="M534,766.1c0,5,0,10,0,15.1c0,49.6,0,99.3,0,148.9c0,8.2,7.5,14.9,15.6,14.9c8.2-0.1,14.4-6.9,14.4-15.1&#10;&#9;&#9;&#9;&#9;c0-5,0-10,0-15.1c0-49.6,1.2-99.3,1.2-148.9c0-1.1,0-2.1,0-3.2c0-0.6,0-1.3,0-1.9c0-0.3,0.1-0.9,0.1-1c0,0,0-0.1,0-0.1&#10;&#9;&#9;&#9;&#9;c0.4-2.2,0.7-4,1.4-6.1c0.2-0.5,0.3-1,0.5-1.5c0.3-0.7,0.7-1.4,1.1-2.1c0.5-0.8,0.9-1.5,1.4-2.3c1.1-1.1,3.8-3.3,3.1-2.9&#10;&#9;&#9;&#9;&#9;c0.3-0.2,0.7-0.4,1-0.6c0.6-0.2,2.2-0.8,3.2-1.1c0.6,0,1.2-0.1,1.9,0c0.2,0,0.3,0,0.5,0c0.5,0.1,1,0.2,1.4,0.3&#10;&#9;&#9;&#9;&#9;c0.4,0.1,0.7,0.2,1.1,0.3c0,0,0.1,0,0.1,0.1c0.8,0.5,1.7,0.9,2.5,1.5c0.7,0.7,1.5,1.4,2.2,2.1c0,0.2,2.2,3.4,2.7,4.3&#10;&#9;&#9;&#9;&#9;c0.1,0.2,0.3,0.7,0.5,1.1c0.2,0.6,0.4,1.3,0.6,1.9c0.3,1,0.6,2.1,0.8,3.1c0.1,0.4,0.1,1.7,0.2,2.1c0.1,0.9-0.1,1.4,0,2.8&#10;&#9;&#9;&#9;&#9;c0,1.1-0.3,2.1-0.3,3.2c0,5,0,10,0,15.1c0,49.6,1.2,99.3,1.2,148.9c0,8.2,6.4,14.9,14.5,14.9c8.2-0.1,15.3-6.9,15.3-15.1&#10;&#9;&#9;&#9;&#9;c0-5,0-10,0-15.1c0-44.6,0-89.2,0-133.8c0-0.4,0-0.9,0-1.4c0-4.6,0-9.1,0-13.7V709h-87.6l0.1,48.5c-0.1,1.3-0.2,3-0.3,4.3&#10;&#9;&#9;&#9;&#9;C534,763.3,534,764.7,534,766.1z M590,753.5C590.1,753.8,590.1,753.9,590,753.5L590,753.5z M581.2,743.5&#10;&#9;&#9;&#9;&#9;C579.7,742.9,580.4,743.2,581.2,743.5L581.2,743.5z" style="fill: rgb(14, 36, 53);"/>
			<path class="st4" d="M624,724V600.7c0-19.7-15.2-35.7-34.9-35.7h-23.4c-19.7,0-35.7,16-35.7,35.7V724" style="fill: rgb(255, 255, 255);"/>
			<g>
				<path class="st4" d="M602.9,585.8c-0.2-0.1-0.5-0.2-0.7-0.3C601.8,585.4,601.7,585.4,602.9,585.8z" style="fill: rgb(255, 255, 255);"/>
				<path class="st4" d="M623.1,602.2c-0.2-0.3-0.4-0.6-0.6-0.8C623.1,602.1,623.2,602.3,623.1,602.2z" style="fill: rgb(255, 255, 255);"/>
				<path class="st4" d="M588.6,581.9C586.3,581.6,589.7,582,588.6,581.9L588.6,581.9z" style="fill: rgb(255, 255, 255);"/>
				<path class="st5" d="M665.6,708c-0.5,5.7-4.4,10.5-10.5,10.5c-5.3,0-11-4.8-10.5-10.5c0.2-2.7,0.4-5.3,0.5-8h21&#10;&#9;&#9;&#9;&#9;&#9;C666,702.7,665.8,705.3,665.6,708z" style="fill: rgb(255, 213, 184);"/>
				<path class="st4" d="M633.3,620C632.4,617.7,633.8,621.1,633.3,620L633.3,620z" style="fill: rgb(255, 255, 255);"/>
				<path class="st4" d="M643.2,658.6C643,656.8,643.5,661.1,643.2,658.6L643.2,658.6z" style="fill: rgb(255, 255, 255);"/>
				<path class="st4" d="M613,591.9C612.7,591.6,613.7,592.3,613,591.9L613,591.9z" style="fill: rgb(255, 255, 255);"/>
				<path class="st4" d="M508.5,705.2c0,0.3,0.1,0.5,0.1,0.8C508.8,707.8,508,702.5,508.5,705.2z" style="fill: rgb(255, 255, 255);"/>
				<path class="st5" d="M508.1,700c0.1,1.2,0.2,2.4,0.3,3.5c0.1,0.6,0.1,1.1,0.2,1.7c-0.5-2.7,0.3,2.6,0.1,0.8&#10;&#9;&#9;&#9;&#9;&#9;c0-0.3-0.1-0.5-0.1-0.8c0,0,0,0,0,0c1,5.6-1.5,11.3-7.3,12.9c-5.1,1.4-11.9-1.7-12.9-7.3c-0.6-3.5-1.1-7.2-1.4-10.8H508.1z" style="fill: rgb(255, 213, 184);"/>
				<path class="st4" d="M490,648.1c5.2-30.5,19.3-61.8,47.4-77.4c30.3-16.8,71.7-13.6,96.3,11.6c21,21.6,28.2,53.2,31.2,82.2&#10;&#9;&#9;&#9;&#9;&#9;c1.2,11.7,1.7,23.7,1.2,35.5h-21c0.6-13.7-0.2-27.5-1.8-41c0-0.2,0-0.3,0-0.4c0.4,2.5-0.2-1.8,0,0c0,0,0,0,0,0&#10;&#9;&#9;&#9;&#9;&#9;c-0.1-0.8-0.2-1.6-0.4-2.4c-0.2-1.6-0.5-3.3-0.8-4.9c-0.6-3.6-1.4-7.2-2.2-10.8c-1.7-6.9-3.8-13.8-6.5-20.4c0,0,0,0,0,0&#10;&#9;&#9;&#9;&#9;&#9;c0.5,1.1-0.9-2.3,0,0c-0.1-0.1-0.1-0.3-0.3-0.6c-0.3-0.8-0.7-1.5-1.1-2.3c-0.7-1.5-1.5-3-2.3-4.5c-1.7-3.2-3.6-6.3-5.7-9.2&#10;&#9;&#9;&#9;&#9;&#9;c-0.3-0.4-0.6-0.8-0.8-1.2c0.1,0.1-0.1-0.1-0.6-0.8c0.2,0.3,0.4,0.6,0.6,0.8c-0.1-0.1-0.9-1.1-1-1.3c-1-1.3-2.2-2.5-3.3-3.7&#10;&#9;&#9;&#9;&#9;&#9;c-1.1-1.2-2.3-2.3-3.6-3.4c-0.6-0.6-1.2-1.1-1.9-1.6c-0.2-0.1-0.3-0.2-0.3-0.3c0.6,0.4-0.3-0.3,0,0c-0.2-0.1-0.4-0.3-0.8-0.6&#10;&#9;&#9;&#9;&#9;&#9;c-2.7-2-5.7-3.7-8.7-5.1c-0.2-0.1-0.9-0.4-1.4-0.6c0.2,0.1,0.5,0.2,0.7,0.3c-1.1-0.5-1.1-0.4-0.7-0.3c-0.6-0.2-1.2-0.5-1.8-0.7&#10;&#9;&#9;&#9;&#9;&#9;c-2-0.7-4-1.3-6-1.8c-1.8-0.5-3.7-0.8-5.5-1.1c-0.1,0-0.1,0-0.2,0c1.1,0.1-2.3-0.4,0,0c-0.2,0-0.4,0-0.9-0.1c-1-0.1-2-0.2-3-0.2&#10;&#9;&#9;&#9;&#9;&#9;c-4.7-0.3-9.5-0.1-14.2,0.3c-0.9,0.1-2.4,0.3-4.7,0.7c-2,0.4-4,0.9-6,1.4c-5,1.4-6.6,2.1-10.1,3.9c-3.3,1.6-6.4,3.6-9.3,5.8&#10;&#9;&#9;&#9;&#9;&#9;c0,0-0.1,0-0.1,0.1c0.8-0.7-1.9,1.4,0,0c-0.1,0.1-0.3,0.3-0.6,0.5c-0.7,0.6-1.4,1.2-2,1.7c-1.5,1.4-3,2.8-4.4,4.3&#10;&#9;&#9;&#9;&#9;&#9;c-1.2,1.3-2.4,2.6-3.5,4c-0.1,0.1-0.2,0.2-0.3,0.3c1.1-1.5-1.2,1.4,0,0c-0.1,0.1-0.1,0.2-0.2,0.3c-0.5,0.7-1,1.4-1.5,2.1&#10;&#9;&#9;&#9;&#9;&#9;c-2.2,3.1-4.1,6.4-5.9,9.8c-0.8,1.6-1.6,3.2-2.3,4.8c-0.2,0.5-0.5,1-0.7,1.5c0,0-0.1,0.2-0.4,0.9c0.1-0.3,0.3-0.6,0.4-0.9&#10;&#9;&#9;&#9;&#9;&#9;c0,0.1-0.6,1.4-0.7,1.7c-1.4,3.6-2.6,7.2-3.7,10.9c-2.1,6.9-3.5,14-4.6,21.2c-0.1,0.8-0.2,1.6-0.4,2.4c0.2-1.4-0.4,2.6,0,0.1&#10;&#9;&#9;&#9;&#9;&#9;c0,0,0,0,0-0.1c0,0.1,0,0.3-0.1,0.6c-0.2,1.6-0.4,3.2-0.5,4.9c-0.3,3.3-0.6,6.7-0.8,10c-0.4,7-0.4,14.1-0.1,21.2&#10;&#9;&#9;&#9;&#9;&#9;c0.1,1.3,0.1,2.6,0.2,3.9h-21.2C485.3,682.8,487.2,664.8,490,648.1z" style="fill: rgb(255, 255, 255);"/>
				<path class="st4" d="M518.7,623.3c-0.1,0.3-0.3,0.6-0.4,0.9C518.6,623.5,518.7,623.3,518.7,623.3z" style="fill: rgb(255, 255, 255);"/>
				<path class="st4" d="M529.4,604.7C528.2,606.1,530.5,603.2,529.4,604.7L529.4,604.7z" style="fill: rgb(255, 255, 255);"/>
				<path class="st4" d="M509.3,659.5C509.3,659.5,509.3,659.5,509.3,659.5C509,662.1,509.5,658.1,509.3,659.5z" style="fill: rgb(255, 255, 255);"/>
				<path class="st4" d="M540.2,593.8C538.3,595.2,541,593.2,540.2,593.8L540.2,593.8z" style="fill: rgb(255, 255, 255);"/>
			</g>
			<path class="st5" d="M563.4,536l-2,28c0,8.3,6.7,15,15,15h2c8.3,0,15-6.7,15-15l-2-28" style="fill: rgb(255, 213, 184);"/>
			<g>
				<path class="st5" d="M552.3,516.1c0,15,12.1,32.3,30.1,35.2c23.3,3.8,29.7-2,28.1-25.2c-1.1-15.7,13.8-52-24.3-48.9&#10;&#9;&#9;&#9;&#9;&#9;C568.1,478.6,552.3,492.1,552.3,516.1z" style="fill: rgb(255, 213, 184);"/>
				<g>
					<path class="st17" d="M557.4,474c11.2-9.7,29.2-12.6,50.9-7.6l2.1,12.5l5.3-10.5c0.7,0.2,1.3,0.4,2,0.6c0,0,0.5,9.9-5.7,22.7&#10;&#9;&#9;&#9;&#9;&#9;&#9;c-1.4,2.8-31.3-6.7-42.6,1c-9.8,6.6-9.3,31-9.3,31l-3.3,12.3C556.7,536,534.4,494,557.4,474z" style="fill: rgb(191, 109, 85);"/>
				</g>
				<path d="M 566.400012 512.700012 A 6.7 7.7 0 0 1 559.700012 520.400012 A 6.7 7.7 0 0 1 553.000012 512.700012 A 6.7 7.7 0 0 1 559.700012 505.000012 A 6.7 7.7 0 0 1 566.400012 512.700012 Z" class="st5" style="fill: rgb(255, 213, 184);"/>
			</g>
		</g>
		<path d="M 578.7000122070312 580.9000244140625 L 560.4000244140625 555.5 L 548.7000122070312 563 L 565.4000244140625 588.2999877929688 Z" class="st16" style="fill: rgb(201, 201, 201);"/>
		<path d="M 574.7000122070312 581.9000244140625 L 593.0999755859375 556.5 L 604.7000122070312 564 L 588.0999755859375 589.2999877929688 Z" class="st16" style="fill: rgb(201, 201, 201);"/>
		<g>
			<path d="M 575.7000122070312 582.5 L 579.2999877929688 583.0999755859375 L 587.9000244140625 667.7000122070312 L 576.0999755859375 685.4000244140625 L 565.9000244140625 667.0999755859375 Z" class="st18" style="fill: rgb(206, 21, 21);"/>
			<path class="st18" d="M571.7,587.2c0,5.7,2.4,5.4,5.4,5.4s5.4,0.2,5.4-5.4c0-5.7-2.4-5.4-5.4-5.4S571.7,581.6,571.7,587.2z" style="fill: rgb(206, 21, 21);"/>
		</g>
	</g>
	<path class="st7" d="M606.4,534h-26.8C579.6,534,593.1,556.5,606.4,534z" style="fill: rgb(35, 20, 11);"/>
</g>

<g transform="matrix(0.5919525623321533, 0, 0, 0.5919525623321533, 6.487939008956516, -47.343464806909395)">
	<g>
		<path class="st8" d="M94,767.1c0,5,0,10,0,15.1c0,49.6,0,99.3,0,148.9c0,8.2,7.5,14.9,15.6,14.9c8.2-0.1,14.4-6.9,14.4-15.1&#10;&#9;&#9;&#9;c0-5,0-10,0-15.1c0-49.6,1.2-99.3,1.2-148.9c0-1.1,0-2.1,0-3.2c0-0.6,0-1.3,0-1.9c0-0.3,0.1-0.9,0.1-1c0,0,0-0.1,0-0.1&#10;&#9;&#9;&#9;c0.4-2.2,0.7-4,1.4-6.1c0.2-0.5,0.3-1,0.5-1.5c0.3-0.7,0.7-1.4,1.1-2.1c0.5-0.8,0.9-1.5,1.4-2.3c1.1-1.1,3.8-3.3,3.1-2.9&#10;&#9;&#9;&#9;c0.3-0.2,0.7-0.4,1-0.6c0.6-0.2,2.2-0.8,3.2-1.1c0.6,0,1.2-0.1,1.9,0c0.2,0,0.3,0,0.5,0c0.5,0.1,1,0.2,1.4,0.3&#10;&#9;&#9;&#9;c0.4,0.1,0.7,0.2,1.1,0.3c0,0,0.1,0,0.1,0.1c0.8,0.5,1.7,0.9,2.5,1.5c0.7,0.7,1.5,1.4,2.2,2.1c0,0.2,2.2,3.4,2.7,4.3&#10;&#9;&#9;&#9;c0.1,0.2,0.3,0.7,0.5,1.1c0.2,0.6,0.4,1.3,0.6,1.9c0.3,1,0.6,2.1,0.8,3.1c0.1,0.4,0.1,1.7,0.2,2.1c0.1,0.9-0.1,1.4,0,2.8&#10;&#9;&#9;&#9;c0,1.1-0.3,2.1-0.3,3.2c0,5,0,10,0,15.1c0,49.6,1.2,99.3,1.2,148.9c0,8.2,6.4,14.9,14.5,14.9c8.2-0.1,15.3-6.9,15.3-15.1&#10;&#9;&#9;&#9;c0-5,0-10,0-15.1c0-44.6,0-89.2,0-133.8c0-0.4,0-0.9,0-1.4c0-4.6,0-9.1,0-13.7V710H94.4l0.1,48.5c-0.1,1.3-0.2,3-0.3,4.3&#10;&#9;&#9;&#9;C94,764.3,94,765.7,94,767.1z M150,754.5C150.1,754.8,150.1,754.9,150,754.5L150,754.5z M141.2,744.5&#10;&#9;&#9;&#9;C139.7,743.9,140.4,744.2,141.2,744.5L141.2,744.5z" style="fill: rgb(38, 53, 63);"/>
		<path class="st12" d="M184,725V601.7c0-19.7-15.2-35.7-34.9-35.7h-23.4C106,566,90,582,90,601.7V725" style="fill: rgb(9, 22, 30);"/>
		<g>
			<path class="st3" d="M68,676c0.2-3.4,0.4-6.7,0.8-10c0.2-1.6,0.3-3.2,0.5-4.9c0-0.2,0.1-0.4,0.1-0.6c0.1-0.8,0.2-1.6,0.4-2.4&#10;&#9;&#9;&#9;&#9;c1.1-7.1,2.6-14.2,4.6-21.2c1.1-3.7,2.3-7.3,3.7-10.9c0.1-0.2,0.7-1.6,0.7-1.7c0.2-0.5,0.4-1,0.7-1.5c0.7-1.6,1.5-3.2,2.3-4.8&#10;&#9;&#9;&#9;&#9;c1.8-3.4,3.7-6.7,5.9-9.8c0.5-0.7,1-1.4,1.5-2.1c0.1-0.1,0.2-0.2,0.2-0.3c0.1-0.1,0.2-0.2,0.3-0.3c1.1-1.4,2.3-2.7,3.5-4&#10;&#9;&#9;&#9;&#9;c1.4-1.5,2.9-3,4.4-4.3c0.7-0.6,1.3-1.2,2-1.7c0.3-0.2,0.5-0.4,0.6-0.5c0,0,0.1,0,0.1-0.1c3-2.2,6.1-4.1,9.3-5.8&#10;&#9;&#9;&#9;&#9;c3.5-1.7,5.1-2.5,10.1-3.9c2-0.5,4-1.1,6-1.4c2.3-0.4,3.9-0.7,4.7-0.7c4.7-0.5,9.5-0.7,14.2-0.3c1,0.1,2,0.1,3,0.2&#10;&#9;&#9;&#9;&#9;c0.4,0,0.7,0.1,0.9,0.1c0.1,0,0.1,0,0.2,0c1.9,0.3,3.7,0.6,5.5,1.1c2,0.5,4.1,1.1,6,1.8c0.6,0.2,1.2,0.4,1.8,0.7&#10;&#9;&#9;&#9;&#9;c0.4,0.2,1.2,0.5,1.4,0.6c3,1.5,6,3.2,8.7,5.1c0.4,0.3,0.7,0.5,0.8,0.6c0.1,0.1,0.2,0.1,0.3,0.3c0.6,0.5,1.3,1.1,1.9,1.6&#10;&#9;&#9;&#9;&#9;c1.2,1.1,2.4,2.2,3.6,3.4c1.1,1.2,2.2,2.4,3.3,3.7c0.2,0.2,0.9,1.2,1,1.3c0.3,0.4,0.6,0.8,0.8,1.2c2.1,3,4,6,5.7,9.2&#10;&#9;&#9;&#9;&#9;c0.8,1.5,1.6,3,2.3,4.5c0.4,0.8,0.7,1.5,1.1,2.3c0.1,0.3,0.2,0.5,0.3,0.6c0,0,0,0,0,0c2.7,6.6,4.8,13.4,6.5,20.4&#10;&#9;&#9;&#9;&#9;c0.8,3.6,1.6,7.2,2.2,10.8c0.3,1.6,0.6,3.3,0.8,4.9c0.1,0.8,0.2,1.6,0.4,2.4c0,0,0,0,0,0c0,0.1,0,0.2,0,0.4&#10;&#9;&#9;&#9;&#9;c1.7,13.5,2.5,27.3,1.8,41h-137c-0.1-1.3-0.2-2.6-0.2-3.9C67.5,690.1,67.6,683,68,676z" style="fill: none;"/>
			<path class="st4" d="M162.9,586.8c-0.2-0.1-0.5-0.2-0.7-0.3C161.8,586.4,161.7,586.4,162.9,586.8z" style="fill: rgb(255, 255, 255);"/>
			<path class="st4" d="M183.1,603.2c-0.2-0.3-0.4-0.6-0.6-0.8C183.1,603.1,183.2,603.3,183.1,603.2z" style="fill: rgb(255, 255, 255);"/>
			<path class="st4" d="M148.6,582.9C146.3,582.6,149.7,583,148.6,582.9L148.6,582.9z" style="fill: rgb(255, 255, 255);"/>
			<path class="st13" d="M225.6,709c-0.5,5.7-4.4,10.5-10.5,10.5c-5.3,0-11-4.8-10.5-10.5c0.2-2.7,0.4-5.3,0.5-8h21&#10;&#9;&#9;&#9;&#9;C226,703.7,225.8,706.3,225.6,709z" style="fill: rgb(186, 132, 96);"/>
			<path class="st4" d="M193.3,621C192.4,618.7,193.8,622.1,193.3,621L193.3,621z" style="fill: rgb(255, 255, 255);"/>
			<path class="st4" d="M203.2,659.6C203,657.8,203.5,662.1,203.2,659.6L203.2,659.6z" style="fill: rgb(255, 255, 255);"/>
			<path class="st4" d="M173,592.9C172.7,592.6,173.7,593.3,173,592.9L173,592.9z" style="fill: rgb(255, 255, 255);"/>
			<path class="st4" d="M68.5,706.2c0,0.3,0.1,0.5,0.1,0.8C68.8,708.8,68,703.5,68.5,706.2z" style="fill: rgb(255, 255, 255);"/>
			<path class="st13" d="M68.1,701c0.1,1.2,0.2,2.4,0.3,3.5c0.1,0.6,0.1,1.1,0.2,1.7c-0.5-2.7,0.3,2.6,0.1,0.8&#10;&#9;&#9;&#9;&#9;c0-0.3-0.1-0.5-0.1-0.8c0,0,0,0,0,0c1,5.6-1.5,11.3-7.3,12.9c-5.1,1.4-11.9-1.7-12.9-7.3c-0.6-3.5-1.1-7.2-1.4-10.8H68.1z" style="fill: rgb(186, 132, 96);"/>
			<path class="st12" d="M50,649.1c5.2-30.5,19.3-61.8,47.4-77.4c30.3-16.8,71.7-13.6,96.3,11.6c21,21.6,28.2,53.2,31.2,82.2&#10;&#9;&#9;&#9;&#9;c1.2,11.7,1.7,23.7,1.2,35.5h-21c0.6-13.7-0.2-27.5-1.8-41c0-0.2,0-0.3,0-0.4c0.4,2.5-0.2-1.8,0,0c0,0,0,0,0,0&#10;&#9;&#9;&#9;&#9;c-0.1-0.8-0.2-1.6-0.4-2.4c-0.2-1.6-0.5-3.3-0.8-4.9c-0.6-3.6-1.4-7.2-2.2-10.8c-1.7-6.9-3.8-13.8-6.5-20.4c0,0,0,0,0,0&#10;&#9;&#9;&#9;&#9;c0.5,1.1-0.9-2.3,0,0c-0.1-0.1-0.1-0.3-0.3-0.6c-0.3-0.8-0.7-1.5-1.1-2.3c-0.7-1.5-1.5-3-2.3-4.5c-1.7-3.2-3.6-6.3-5.7-9.2&#10;&#9;&#9;&#9;&#9;c-0.3-0.4-0.6-0.8-0.8-1.2c0.1,0.1-0.1-0.1-0.6-0.8c0.2,0.3,0.4,0.6,0.6,0.8c-0.1-0.1-0.9-1.1-1-1.3c-1-1.3-2.2-2.5-3.3-3.7&#10;&#9;&#9;&#9;&#9;c-1.1-1.2-2.3-2.3-3.6-3.4c-0.6-0.6-1.2-1.1-1.9-1.6c-0.2-0.1-0.3-0.2-0.3-0.3c0.6,0.4-0.3-0.3,0,0c-0.2-0.1-0.4-0.3-0.8-0.6&#10;&#9;&#9;&#9;&#9;c-2.7-2-5.7-3.7-8.7-5.1c-0.2-0.1-0.9-0.4-1.4-0.6c0.2,0.1,0.5,0.2,0.7,0.3c-1.1-0.5-1.1-0.4-0.7-0.3c-0.6-0.2-1.2-0.5-1.8-0.7&#10;&#9;&#9;&#9;&#9;c-2-0.7-4-1.3-6-1.8c-1.8-0.5-3.7-0.8-5.5-1.1c-0.1,0-0.1,0-0.2,0c1.1,0.1-2.3-0.4,0,0c-0.2,0-0.4,0-0.9-0.1c-1-0.1-2-0.2-3-0.2&#10;&#9;&#9;&#9;&#9;c-4.7-0.3-9.5-0.1-14.2,0.3c-0.9,0.1-2.4,0.3-4.7,0.7c-2,0.4-4,0.9-6,1.4c-5,1.4-6.6,2.1-10.1,3.9c-3.3,1.6-6.4,3.6-9.3,5.8&#10;&#9;&#9;&#9;&#9;c0,0-0.1,0-0.1,0.1c0.8-0.7-1.9,1.4,0,0c-0.1,0.1-0.3,0.3-0.6,0.5c-0.7,0.6-1.4,1.2-2,1.7c-1.5,1.4-3,2.8-4.4,4.3&#10;&#9;&#9;&#9;&#9;c-1.2,1.3-2.4,2.6-3.5,4c-0.1,0.1-0.2,0.2-0.3,0.3c1.1-1.5-1.2,1.4,0,0c-0.1,0.1-0.1,0.2-0.2,0.3c-0.5,0.7-1,1.4-1.5,2.1&#10;&#9;&#9;&#9;&#9;c-2.2,3.1-4.1,6.4-5.9,9.8c-0.8,1.6-1.6,3.2-2.3,4.8c-0.2,0.5-0.5,1-0.7,1.5c0,0-0.1,0.2-0.4,0.9c0.1-0.3,0.3-0.6,0.4-0.9&#10;&#9;&#9;&#9;&#9;c0,0.1-0.6,1.4-0.7,1.7c-1.4,3.6-2.6,7.2-3.7,10.9c-2.1,6.9-3.5,14-4.6,21.2c-0.1,0.8-0.2,1.6-0.4,2.4c0.2-1.4-0.4,2.6,0,0.1&#10;&#9;&#9;&#9;&#9;c0,0,0,0,0-0.1c0,0.1,0,0.3-0.1,0.6c-0.2,1.6-0.4,3.2-0.5,4.9c-0.3,3.3-0.6,6.7-0.8,10c-0.4,7-0.4,14.1-0.1,21.2&#10;&#9;&#9;&#9;&#9;c0.1,1.3,0.1,2.6,0.2,3.9H46.8C45.3,683.8,47.2,665.8,50,649.1z" style="fill: rgb(9, 22, 30);"/>
			<path class="st4" d="M78.7,624.3c-0.1,0.3-0.3,0.6-0.4,0.9C78.6,624.5,78.7,624.3,78.7,624.3z" style="fill: rgb(255, 255, 255);"/>
			<path class="st4" d="M89.4,605.7C88.2,607.1,90.5,604.2,89.4,605.7L89.4,605.7z" style="fill: rgb(255, 255, 255);"/>
			<path class="st4" d="M69.3,660.5C69.3,660.5,69.3,660.5,69.3,660.5C69,663.1,69.5,659.1,69.3,660.5z" style="fill: rgb(255, 255, 255);"/>
			<path class="st4" d="M100.2,594.8C98.3,596.2,101,594.2,100.2,594.8L100.2,594.8z" style="fill: rgb(255, 255, 255);"/>
		</g>
		<path class="st13" d="M123.4,537l-2,28c0,8.3,6.7,15,15,15h2c8.3,0,15-6.7,15-15l-2-28" style="fill: rgb(186, 132, 96);"/>
		<g>
			<path class="st13" d="M112.3,517.1c0,15,12.1,32.3,30.1,35.2c23.3,3.8,29.7-2,28.1-25.2c-1.1-15.7,13.8-52-24.3-48.9&#10;&#9;&#9;&#9;&#9;C128.1,479.6,112.3,493.1,112.3,517.1z" style="fill: rgb(186, 132, 96);"/>
			<path class="st14" d="M172,492.7c17.4-10.2,11.7-34,11.7-34c-16,19.3-46.6-8.8-66.5,12.1c-23.1,24.2-0.5,66.2-0.5,66.2l3.3-12.3&#10;&#9;&#9;&#9;&#9;c0,0-1.3-24,7.3-32C127.4,492.7,158.3,500.7,172,492.7z" style="fill: rgb(51, 30, 14);"/>
			<path d="M 126.399997 513.700012 A 6.7 7.7 0 0 1 119.699997 521.400012 A 6.7 7.7 0 0 1 112.999997 513.700012 A 6.7 7.7 0 0 1 119.699997 506.000012 A 6.7 7.7 0 0 1 126.399997 513.700012 Z" class="st13" style="fill: rgb(186, 132, 96);"/>
		</g>
	</g>
	<path class="st7" d="M165.4,534h-26.8C138.6,534,152.1,556.5,165.4,534z" style="fill: rgb(35, 20, 11);"/>
</g>



<g transform="matrix(0.5919525623321533, 0, 0, 0.5919525623321533, -217.09260651053077, -38.15522140079784)">
	<g>
		<g>
			<path class="st25" d="M1196.4,492.2c0,22.4,17,40.5,38,40.5c21,0,38-18.1,38-40.5c0-22.4-17-37.5-38-37.5&#10;&#9;&#9;&#9;&#9;C1213.4,454.7,1196.4,469.8,1196.4,492.2z" style="fill: rgb(56, 11, 50);"/>
			<path class="st25" d="M1189.4,486c0,18.1,13.8,32.8,30.8,32.8c17,0,30.8-14.7,30.8-32.8c0-18.1-13.8-30.4-30.8-30.4&#10;&#9;&#9;&#9;&#9;C1203.2,455.7,1189.4,467.9,1189.4,486z" style="fill: rgb(56, 11, 50);"/>
			<path class="st25" d="M1205.4,518.2c0,22.4,17,40.5,38,40.5c21,0,38-18.1,38-40.5c0-22.4-17-37.5-38-37.5&#10;&#9;&#9;&#9;&#9;C1222.4,480.7,1205.4,495.8,1205.4,518.2z" style="fill: rgb(56, 11, 50);"/>
			<path class="st25" d="M1183.4,514.2c0,22.4,17,40.5,38,40.5c21,0,38-18.1,38-40.5c0-22.4-17-37.5-38-37.5&#10;&#9;&#9;&#9;&#9;C1200.4,476.7,1183.4,491.8,1183.4,514.2z" style="fill: rgb(56, 11, 50);"/>
			<path class="st25" d="M1212.4,554.2c0,22.4,17,40.5,38,40.5c21,0,38-18.1,38-40.5c0-22.4-17-37.5-38-37.5&#10;&#9;&#9;&#9;&#9;C1229.4,516.7,1212.4,531.8,1212.4,554.2z" style="fill: rgb(56, 11, 50);"/>
			<path class="st25" d="M1181.4,549.2c0,22.4,17,40.5,38,40.5c21,0,38-18.1,38-40.5c0-22.4-17-37.5-38-37.5&#10;&#9;&#9;&#9;&#9;C1198.4,511.7,1181.4,526.8,1181.4,549.2z" style="fill: rgb(56, 11, 50);"/>
			<path class="st10" d="M1192,761.5c0,4.9,0,9.8,0,14.7c0,48.4,0,96.8,0,145.1c0,8,4.2,14.6,12.1,14.5c8-0.1,12.9-6.8,12.9-14.7&#10;&#9;&#9;&#9;&#9;c0-4.9,0-9.8,0-14.7c0-48.4,1.1-96.8,1.1-145.1c0-1.1-0.1-2.1-0.1-3.1c0-0.6,0-1.3,0-1.9c0-0.3,0.1-0.8,0.1-1c0,0,0,0,0-0.1&#10;&#9;&#9;&#9;&#9;c0.4-2.1,0.7-3.9,1.3-5.9c0.2-0.5,0.3-1,0.5-1.4c0.3-0.7,0.7-1.4,1-2c0.4-0.8,0.9-1.5,1.4-2.2c1-1,3.7-3.2,3-2.8&#10;&#9;&#9;&#9;&#9;c0.3-0.2,0.6-0.4,1-0.6c0.6-0.2,2.2-0.8,3.2-1.1c0.6,0,1.2-0.1,1.8,0c0.2,0,0.3,0,0.5,0c0.5,0.1,0.9,0.2,1.4,0.3&#10;&#9;&#9;&#9;&#9;c0.4,0.1,0.7,0.2,1.1,0.3c0,0,0.1,0,0.1,0.1c0.8,0.4,1.6,0.9,2.4,1.4c0.7,0.7,1.4,1.4,2.1,2.1c0,0.2,2.2,3.3,2.6,4.2&#10;&#9;&#9;&#9;&#9;c0.1,0.2,0.3,0.7,0.5,1.1c0.2,0.6,0.5,1.2,0.6,1.9c0.3,1,0.6,2,0.8,3.1c0.1,0.4,0.2,1.7,0.3,2.1c0.1,0.9,0.2,1.4,0.2,2.7&#10;&#9;&#9;&#9;&#9;c0,1,0.1,2,0.1,3.1c0,4.9,0,9.8,0,14.7c0,48.4,0.9,96.8,0.9,145.1c0,8,3,14.6,10.9,14.5c8-0.1,15.2-6.8,15.2-14.7&#10;&#9;&#9;&#9;&#9;c0-4.9,0-9.8,0-14.7c0-43.5,0-86.9,0-130.4c0-0.4,0-0.9,0-1.4c0-4.4,0-8.9,0-13.3V706h-79.1l0.2,47.1c-0.1,1.2-0.1,2.8-0.2,4.1&#10;&#9;&#9;&#9;&#9;C1191.8,758.7,1192,760.1,1192,761.5z M1242.2,749.2C1242.3,749.5,1242.3,749.6,1242.2,749.2L1242.2,749.2z M1233.6,739.5&#10;&#9;&#9;&#9;&#9;C1232.2,738.9,1232.8,739.1,1233.6,739.5L1233.6,739.5z" style="fill: rgb(127, 79, 46);"/>
			<path class="st10" d="M1204.5,504.4c-0.1,14.4,6.7,29.7,23.7,33.9c21.2,5.2,32,10.2,33.1-24c0.5-15,12.5-49.8-24.1-47&#10;&#9;&#9;&#9;&#9;C1219.8,468.5,1204.6,481.4,1204.5,504.4z" style="fill: rgb(127, 79, 46);"/>
			<g>
				<path class="st3" d="M1178.1,609.9c-0.1,0.3-0.3,0.6-0.4,0.9C1178,610.1,1178.1,609.9,1178.1,609.9z" style="fill: none;"/>
				<path class="st3" d="M1289.6,644.3C1289.4,642.5,1289.9,646.7,1289.6,644.3L1289.6,644.3z" style="fill: none;"/>
				<path class="st3" d="M1280,606.7C1279.1,604.5,1280.5,607.8,1280,606.7L1280,606.7z" style="fill: none;"/>
				<path class="st3" d="M1168.9,645.1C1168.9,645.2,1168.9,645.2,1168.9,645.1C1168.6,647.7,1169.1,643.8,1168.9,645.1z" style="fill: none;"/>
				<path class="st3" d="M1168.1,689.7c0,0.3,0.1,0.5,0.1,0.8C1168.4,692.2,1167.6,687,1168.1,689.7z" style="fill: none;"/>
				<path class="st3" d="M1270.1,589.3c-0.2-0.3-0.4-0.6-0.6-0.8C1270,589.2,1270.1,589.4,1270.1,589.3z" style="fill: none;"/>
				<path class="st3" d="M1260.2,579.3C1259.9,579,1260.8,579.7,1260.2,579.3L1260.2,579.3z" style="fill: none;"/>
				<path class="st3" d="M1250.3,573.4c-0.2-0.1-0.5-0.2-0.7-0.3C1249.3,572.9,1249.2,572.9,1250.3,573.4z" style="fill: none;"/>
				<path class="st3" d="M1188.5,591.8C1187.4,593.1,1189.6,590.3,1188.5,591.8L1188.5,591.8z" style="fill: none;"/>
				<path class="st3" d="M1236.4,569.6C1234.2,569.2,1237.5,569.6,1236.4,569.6L1236.4,569.6z" style="fill: none;"/>
				<path class="st3" d="M1195.3,633.8l0-0.1C1195.4,633.3,1195.4,633.3,1195.3,633.8z" style="fill: none;"/>
				<path class="st3" d="M1266.5,633.6L1266.5,633.6C1266.4,633.4,1266.4,633.3,1266.5,633.6z" style="fill: none;"/>
				<path class="st3" d="M1199,581.2C1197.2,582.5,1199.8,580.5,1199,581.2L1199,581.2z" style="fill: none;"/>
			</g>
			<path class="st25" d="M1217.4,485.7c0,0-5.2,20.5-0.5,47.9c0,0-10.8-3.5-17.7-21.2c-2.4-6.2,2.6-26.7,2.6-26.7" style="fill: rgb(56, 11, 50);"/>
			<path class="st10" d="M1206.1,508.7c0,4.2,3,7.7,6.7,7.7c3.7,0,6.7-3.4,6.7-7.7c0-4.2-4-7.7-7.7-7.7&#10;&#9;&#9;&#9;&#9;C1208,501,1206.1,504.4,1206.1,508.7z" style="fill: rgb(127, 79, 46);"/>
		</g>
		<g>
			<path class="st3" d="M1178.1,609.9c-0.1,0.3-0.3,0.6-0.4,0.9C1178,610.1,1178.1,609.9,1178.1,609.9z" style="fill: none;"/>
			<path class="st3" d="M1280,606.7C1279.1,604.5,1280.5,607.8,1280,606.7L1280,606.7z" style="fill: none;"/>
			<path class="st3" d="M1289.6,644.3C1289.4,642.5,1289.9,646.7,1289.6,644.3L1289.6,644.3z" style="fill: none;"/>
			<path class="st3" d="M1168.9,645.1C1168.9,645.2,1168.9,645.2,1168.9,645.1C1168.6,647.7,1169.1,643.8,1168.9,645.1z" style="fill: none;"/>
			<path class="st3" d="M1168.1,689.7c0,0.3,0.1,0.5,0.1,0.8C1168.4,692.2,1167.6,687,1168.1,689.7z" style="fill: none;"/>
			<g>
				<path class="st26" d="M1191.7,660h78.5c6.2,22.2,14.7,64,10.5,115h-98.4C1176.6,726.9,1185.4,683.2,1191.7,660z" style="fill: rgb(255, 187, 198);"/>
				<path class="st26" d="M1197.1,643h67.5c0.7,1.6,3,7.5,5.6,17h-78.5C1194.2,650.8,1196.4,644.8,1197.1,643z" style="fill: rgb(255, 187, 198);"/>
				<path class="st27" d="M1184.5,790c-0.9-5-1.7-10-2.2-15h98.4c-0.4,4.9-0.9,9.9-1.6,15H1184.5z" style="fill: rgb(255, 118, 144);"/>
			</g>
			<g>
				<path class="st3" d="M1178.1,609.9c-0.1,0.3-0.3,0.6-0.4,0.9C1178,610.1,1178.1,609.9,1178.1,609.9z" style="fill: none;"/>
				<path class="st3" d="M1289.6,644.3C1289.4,642.5,1289.9,646.7,1289.6,644.3L1289.6,644.3z" style="fill: none;"/>
				<path class="st3" d="M1168.9,645.1C1168.9,645.2,1168.9,645.2,1168.9,645.1C1168.6,647.7,1169.1,643.8,1168.9,645.1z" style="fill: none;"/>
				<path class="st3" d="M1280,606.7C1279.1,604.5,1280.5,607.8,1280,606.7L1280,606.7z" style="fill: none;"/>
				<path class="st3" d="M1168.1,689.7c0,0.3,0.1,0.5,0.1,0.8C1168.4,692.2,1167.6,687,1168.1,689.7z" style="fill: none;"/>
				<path class="st10" d="M1311.4,692.4c-0.5,5.6-4.3,10.2-10.2,10.2c-5.2,0-10.7-4.7-10.2-10.2c0.2-2.5,0.4-4.9,0.5-7.4h20.5&#10;&#9;&#9;&#9;&#9;&#9;C1311.8,687.5,1311.6,689.9,1311.4,692.4z" style="fill: rgb(127, 79, 46);"/>
				<path class="st26" d="M1150.1,634.1c2.4-13.9,6.6-27.9,13.3-40.5c5.1-9.7,11.7-18.6,20-25.8c3.9-3.4,8.2-6.5,12.9-9.1&#10;&#9;&#9;&#9;&#9;&#9;c29.2-16.2,59.5-13.3,83.4,10.6c0.2,0.2,0.5,0.4,0.7,0.7c6.9,7,12.2,15.2,16.4,24c8.3,17.4,12.1,37.4,14,56.1&#10;&#9;&#9;&#9;&#9;&#9;c1.2,11.4,1.7,23,1.2,34.6c0,0.1,0,0.3,0,0.4h-20.5c0-0.1,0-0.3,0-0.4c0.6-13.3-0.2-26.8-1.8-39.9c0-0.2,0-0.3,0-0.4&#10;&#9;&#9;&#9;&#9;&#9;c0.3,2.5-0.2-1.7,0,0c0,0,0,0,0,0c-0.1-0.8-0.2-1.6-0.3-2.4c-0.2-1.6-0.5-3.2-0.8-4.8c-0.6-3.5-1.4-7-2.2-10.5&#10;&#9;&#9;&#9;&#9;&#9;c-1.6-6.8-3.7-13.4-6.3-19.9c0,0,0,0,0,0c0.5,1.1-0.9-2.2,0,0c-0.1-0.1-0.1-0.3-0.3-0.6c-0.2-0.4-0.3-0.8-0.5-1.2&#10;&#9;&#9;&#9;&#9;&#9;c-0.2-0.4-0.3-0.7-0.5-1.1c-0.7-1.5-1.5-3-2.2-4.4c-0.5-0.9-1-1.9-1.6-2.8l-10.5,46c0,0.1,0.1,0.2,0.2,0.3h-67.5&#10;&#9;&#9;&#9;&#9;&#9;c0.1-0.1,0.1-0.3,0.2-0.4l-10.3-48.8c0,0-0.1,0.1-0.1,0.1c-0.1,0.1-0.1,0.2-0.2,0.2c-2.1,3.1-4,6.3-5.7,9.6&#10;&#9;&#9;&#9;&#9;&#9;c-0.1,0.2-0.2,0.5-0.3,0.7c-0.7,1.3-1.3,2.6-1.9,4c-0.2,0.5-0.4,1-0.7,1.5c0,0-0.1,0.2-0.4,0.9c0.1-0.3,0.3-0.6,0.4-0.9&#10;&#9;&#9;&#9;&#9;&#9;c0,0.1-0.6,1.4-0.7,1.6c-1.4,3.5-2.6,7-3.6,10.6c-2,6.8-3.4,13.7-4.5,20.6c-0.1,0.8-0.2,1.6-0.4,2.4c0.2-1.3-0.4,2.5,0,0&#10;&#9;&#9;&#9;&#9;&#9;c0,0,0,0,0,0c0,0.1,0,0.3-0.1,0.5c-0.2,1.6-0.4,3.1-0.5,4.7c-0.3,3.3-0.6,6.5-0.7,9.8c-0.4,6.9-0.4,13.7-0.1,20.6&#10;&#9;&#9;&#9;&#9;&#9;c0.1,1.3,0.1,2.5,0.2,3.8c0,0.1,0,0.3,0,0.4H1147c0-0.1,0-0.3,0-0.4C1145.5,667.8,1147.3,650.3,1150.1,634.1z" style="fill: rgb(255, 187, 198);"/>
				<path class="st10" d="M1167.7,685c0.1,1,0.1,2,0.2,3c0,0.5,0.1,1.1,0.2,1.6c-0.5-2.6,0.3,2.5,0.1,0.8c0-0.3-0.1-0.5-0.1-0.8&#10;&#9;&#9;&#9;&#9;&#9;c0,0,0,0,0,0c1,5.5-1.4,11-7.1,12.6c-5,1.4-11.6-1.7-12.6-7.1c-0.6-3.3-1-6.7-1.4-10.1H1167.7z" style="fill: rgb(127, 79, 46);"/>
			</g>
			<path class="st10" d="M1217.3,527.8l-2,28c0.1,6.5,6.8,13.2,15.1,13.2h2c8.3,0,15-6.7,15-15l-2-28" style="fill: rgb(127, 79, 46);"/>
			<path class="st7" d="M1256.4,525h-26.8C1229.6,525,1243.1,547.5,1256.4,525z" style="fill: rgb(35, 20, 11);"/>
		</g>
		<path class="st10" d="M1231.6,596.5L1231.6,596.5c0,0,21.4-34,14.8-43.5c-4.6-6.6-25.4-6.6-30,0&#10;&#9;&#9;&#9;C1209.8,562.5,1231.6,596.5,1231.6,596.5z" style="fill: rgb(127, 79, 46);"/>
	</g>
	<g>
		<path class="st27" d="M1232.1,596.9c0.1-0.2,0.2-0.4,0.2-0.7c0-1.3-1.6-2-2.6-1.1c-1.1,1.2-1.8,3.1-2.7,4.5&#10;&#9;&#9;&#9;c-2.2,3.8-4.5,7.6-6.8,11.3c-6.6,10.5-13.9,20.8-23.2,29.1c-1.4,1.3,0.7,3.4,2.1,2.1c8.5-7.6,15.3-17,21.6-26.5&#10;&#9;&#9;&#9;c2.7-4,5.2-8.2,7.6-12.3c0.9-1.6,2.6-5.2,3.4-6c-0.9-0.4-1.7-0.7-2.6-1.1c0.1-0.3,0-0.4,0-0.1&#10;&#9;&#9;&#9;C1228.5,597.9,1231.4,598.6,1232.1,596.9L1232.1,596.9z" style="fill: rgb(255, 118, 144);"/>
	</g>
	<g>
		<g>
			<path d="M 1199.000049 791.299988 A 7.2 7.2 0 0 1 1191.800049 798.499988 A 7.2 7.2 0 0 1 1184.600049 791.299988 A 7.2 7.2 0 0 1 1191.800049 784.099988 A 7.2 7.2 0 0 1 1199.000049 791.299988 Z" class="st27" style="fill: rgb(255, 118, 144);"/>
		</g>
		<g>
			<path d="M 1212.399951 791.299988 A 7.2 7.2 0 0 1 1205.199951 798.499988 A 7.2 7.2 0 0 1 1197.999951 791.299988 A 7.2 7.2 0 0 1 1205.199951 784.099988 A 7.2 7.2 0 0 1 1212.399951 791.299988 Z" class="st27" style="fill: rgb(255, 118, 144);"/>
		</g>
		<g>
			<path d="M 1225.799975 791.299988 A 7.2 7.2 0 0 1 1218.599976 798.499988 A 7.2 7.2 0 0 1 1211.399976 791.299988 A 7.2 7.2 0 0 1 1218.599976 784.099988 A 7.2 7.2 0 0 1 1225.799975 791.299988 Z" class="st27" style="fill: rgb(255, 118, 144);"/>
		</g>
		<g>
			<path d="M 1239.2 791.299988 A 7.2 7.2 0 0 1 1232 798.499988 A 7.2 7.2 0 0 1 1224.8 791.299988 A 7.2 7.2 0 0 1 1232 784.099988 A 7.2 7.2 0 0 1 1239.2 791.299988 Z" class="st27" style="fill: rgb(255, 118, 144);"/>
		</g>
		<g>
			<path d="M 1252.600024 791.299988 A 7.2 7.2 0 0 1 1245.400024 798.499988 A 7.2 7.2 0 0 1 1238.200025 791.299988 A 7.2 7.2 0 0 1 1245.400024 784.099988 A 7.2 7.2 0 0 1 1252.600024 791.299988 Z" class="st27" style="fill: rgb(255, 118, 144);"/>
		</g>
		<g>
			<path d="M 1266.000049 791.299988 A 7.2 7.2 0 0 1 1258.800049 798.499988 A 7.2 7.2 0 0 1 1251.600049 791.299988 A 7.2 7.2 0 0 1 1258.800049 784.099988 A 7.2 7.2 0 0 1 1266.000049 791.299988 Z" class="st27" style="fill: rgb(255, 118, 144);"/>
		</g>
		<g>
			<path d="M 1279.500049 791.299988 A 7.2 7.2 0 0 1 1272.300049 798.499988 A 7.2 7.2 0 0 1 1265.100049 791.299988 A 7.2 7.2 0 0 1 1272.300049 784.099988 A 7.2 7.2 0 0 1 1279.500049 791.299988 Z" class="st27" style="fill: rgb(255, 118, 144);"/>
		</g>
	</g>
	<path class="st25" d="M1210.8,502.6c5.7,1.6,12.8-5.6,15.8-16.2c3-10.6,0.8-20.5-5-22.1c-5.7-1.6-12.1,5.8-15.1,16.4&#10;&#9;&#9;C1203.6,491.3,1205,501,1210.8,502.6z" style="fill: rgb(56, 11, 50);"/>
	<path class="st25" d="M1267.2,497.9c-5.6,2.9-14.3-2.6-19.3-12.4c-5.1-9.8-4.7-20,0.9-22.9c5.6-2.9,13.5,3,18.6,12.8&#10;&#9;&#9;C1272.5,485.1,1272.8,494.9,1267.2,497.9z" style="fill: rgb(56, 11, 50);"/>
	<path class="st25" d="M1245.1,463.4c4.1,4.8,0.5,14.5-7.9,21.6c-8.4,7.1-18.6,8.9-22.6,4c-4.1-4.8,0-13.8,8.5-20.9&#10;&#9;&#9;C1231.5,461.1,1241,458.6,1245.1,463.4z" style="fill: rgb(56, 11, 50);"/>
</g></svg>