<?xml version="1.0" encoding="utf-8"?>
<svg id="master-artboard" viewBox="0 0 306.7348327636719 336.1920166015625" version="1.1" xmlns="http://www.w3.org/2000/svg" x="0px" y="0px" style="enable-background:new 0 0 1096 780;" width="306.7348327636719px" height="336.1920166015625px"><rect id="ee-background" x="0" y="0" width="306.7348327636719" height="336.1920166015625" style="fill: white; fill-opacity: 0; pointer-events: none;"/>

<path d="M 0 0 H 1096 V 780 H 0 V 0 Z" class="st0" style="fill: rgb(255, 255, 255); fill-opacity: 0;"/>



<path class="st2" d="M238,286.1H63.7c-16.5,0-30-13.5-30-30V80c0-16.5,13.5-30,30-30H238c16.5,0,30,13.5,30,30v176.1&#10;&#9;C268,272.6,254.5,286.1,238,286.1z" style="fill: rgb(0, 106, 167);"/>















<path class="st0" d="M150.9,89c-43.6,0-79,35.4-79,79c0,43.6,35.4,79,79,79c43.6,0,79-35.4,79-79C229.9,124.4,194.5,89,150.9,89z&#10;&#9; M113.4,154.9c0-6.1,4.5-10.6,10-10.6c5.5,0,10,4.6,10,10.6c0,6.1-4.5,11-10,11C117.9,165.9,113.4,161,113.4,154.9z M150.9,220.1&#10;&#9;c-17,0-31.2-12.3-34.2-28.4h3.9c3,14,15.4,24.6,30.3,24.6s27.4-10.6,30.3-24.6h3.9C182,207.9,167.9,220.1,150.9,220.1z M178.3,165.9&#10;&#9;c-5.5,0-10-4.9-10-11c0-6.1,4.5-10.6,10-10.6c5.5,0,10,4.6,10,10.6C188.3,161,183.8,165.9,178.3,165.9z" style="fill: rgb(255, 255, 255);"/>







</svg>